<svg width="113" height="20" fill="none" xmlns="http://www.w3.org/2000/svg"><g clip-path="url(#clip0)"><path d="M11.877 10.1l.304.036c1.241.066 1.642.301 1.777.403.102.1.337.434.337 1.742v4.433a.658.658 0 01-.135.47c-.067.066-.268.201-1.109.47-.401.14-.818.23-1.242.269-.377.062-.76.095-1.142.1a6.361 6.361 0 01-4.762-2.048c-1.277-1.377-1.94-3.326-1.94-5.773 0-2.986.637-5.174 1.947-6.467 1.301-1.25 2.811-1.922 4.49-1.922 1.677 0 2.985.536 4.026 1.644.57.639 1.14 1.612 1.71 2.92l.102.202h1.215l-.24-6.512h-1.176l-.1.2c-.066.204-.18.388-.332.539-.067.066-.202.135-.636.135-.035 0-.336-.036-1.713-.437a12.126 12.126 0 00-3.29-.47c-3.047 0-5.573 1.075-7.419 3.19A10.145 10.145 0 000 10.102c0 3.021 1.074 5.505 3.227 7.316 1.914 1.644 4.296 2.45 7.114 2.45a14.377 14.377 0 004.733-.839c2.18-.74 2.616-1.175 2.616-1.611v-5.47c0-.773.168-1.308.436-1.543.1-.069.37-.204 1.174-.27l.303-.033V8.953h-7.725v1.148zm27.62-8.557l.303.035c.905.1 1.543.301 1.848.638.168.166.436.77.436 2.616v7.25c0 1.71-.202 2.986-.605 3.792-.739 1.41-2.114 2.114-4.294 2.114-1.946 0-3.256-.671-3.927-2.048-.37-.772-.571-1.88-.571-3.254v-8.96c0-1.21.235-1.579.37-1.712.134-.133.57-.37 1.879-.436l.301-.033V.37h-8.526v1.173l.301.035c1.277.1 1.713.335 1.848.47.135.134.37.502.37 1.71v8.686c0 1.778.3 3.22.94 4.328 1.14 2.047 3.326 3.123 6.442 3.123 3.154 0 5.337-1.076 6.51-3.155.604-1.108.94-2.685.94-4.664V4.8c0-1.81.269-2.382.437-2.587.201-.235.67-.538 1.88-.67l.3-.034V.37h-7.114v1.175l-.069-.002zM69.23 14.296c-.671 1.51-1.444 2.45-2.248 2.82-.838.402-2.217.604-4.028.604-2.114 0-2.818-.067-3.053-.135-.066-.034-.268-.067-.268-.671V10.37h3.96c1.41 0 1.88.269 2.013.403.201.202.47.704.706 1.98l.066.267h1.275V5.94h-1.275l-.066.269c-.235 1.242-.505 1.778-.706 1.98-.133.167-.603.435-2.013.435h-3.96V2.711c0-.436.067-.538.067-.538.16-.062.333-.085.504-.066h3.792c1.946 0 2.685.268 2.957.469.272.201.67.772.939 2.182l.066.268h1.344L69.133.362H53.66v1.181l.303.035c1.24.1 1.643.335 1.778.47.135.134.334.535.334 1.71V16.14c0 1.275-.234 1.611-.334 1.71-.135.136-.571.337-1.813.472l-.301.033v1.14h15.637l1.443-5.358h-1.443l-.034.159zm18.323-5.639l-2.45-1.51a8.42 8.42 0 01-1.946-1.542 2.422 2.422 0 01-.57-1.612 1.905 1.905 0 01.738-1.611 2.785 2.785 0 011.78-.604c.905 0 1.848.336 2.785 1.007.937.67 1.611 1.848 2.047 3.557l.067.268h1.308L90.632 0H89.49l-.066.235a1.846 1.846 0 01-.235.57.669.669 0 01-.434.134c-.035 0-.27-.034-1.445-.436A7.412 7.412 0 0084.903 0c-1.61 0-2.956.503-3.96 1.51a5.084 5.084 0 00-1.51 3.758c0 1.14.435 2.181 1.274 3.155a9.208 9.208 0 001.78 1.443l2.381 1.478c1.344.84 2.218 1.479 2.619 1.88a2.883 2.883 0 01.872 2.147c0 .907-.268 1.611-.839 2.114a3.123 3.123 0 01-2.08.772c-1.544 0-2.819-.604-3.859-1.812-.604-.704-1.142-1.678-1.611-2.885l-.067-.201h-1.242l.939 6.61h1.175l.033-.268c.033-.19.102-.373.202-.538.035-.1.168-.135.37-.135.033 0 .303.035 1.51.471a8.67 8.67 0 002.82.503c1.777 0 3.289-.536 4.434-1.543a5.015 5.015 0 001.778-3.894 4.843 4.843 0 00-1.005-3.053c-.68-.973-1.787-1.88-3.364-2.855zm24.465 2.685c-.638-.803-1.78-1.71-3.326-2.685l-2.451-1.51a8.44 8.44 0 01-1.934-1.542 2.42 2.42 0 01-.571-1.612 1.91 1.91 0 01.739-1.611 2.783 2.783 0 011.779-.604c.906 0 1.848.336 2.785 1.007.937.67 1.612 1.848 2.048 3.557l.066.268h1.309L111.781 0h-1.142l-.066.235a1.85 1.85 0 01-.235.57.669.669 0 01-.436.134c-.033 0-.268-.034-1.443-.436A7.421 7.421 0 00106.042 0c-1.61 0-2.957.503-3.96 1.51a5.088 5.088 0 00-1.51 3.758c0 1.14.436 2.181 1.275 3.155a9.17 9.17 0 001.778 1.443l2.384 1.478c1.341.84 2.217 1.479 2.618 1.88a2.884 2.884 0 01.872 2.147c0 .907-.27 1.611-.872 2.114a3.14 3.14 0 01-2.083.772c-1.543 0-2.818-.604-3.858-1.812-.604-.704-1.142-1.678-1.611-2.885l-.067-.201h-1.242l.939 6.61h1.175l.034-.268a2.4 2.4 0 01.168-.538c.033-.1.166-.135.369-.135.035 0 .303.035 1.512.471a8.647 8.647 0 002.818.503c1.78 0 3.289-.536 4.435-1.543a5.017 5.017 0 001.776-3.896c.031-1.341-.303-2.348-.974-3.22z" fill="#000"/></g><defs><clipPath id="clip0"><path fill="#fff" d="M0 0h112.993v20H0z"/></clipPath></defs></svg>