<svg width="28" height="28" fill="none" xmlns="http://www.w3.org/2000/svg"><g clip-path="url(#clip0)" fill="#fff"><path d="M0 19.087a.82.82 0 001.297.668l4.51-3.217c.378-.27.824-.413 1.288-.413h9.92a3.17 3.17 0 003.166-3.166V2.549a.82.82 0 00-.82-.82H3.167A3.17 3.17 0 000 4.896v14.191zM1.64 4.896c0-.841.685-1.526 1.527-1.526H18.54v9.588c0 .842-.685 1.526-1.526 1.526h-9.92c-.808 0-1.583.248-2.24.718L1.64 17.494V4.896z"/><path d="M28 11.259a3.17 3.17 0 00-3.167-3.167h-2.191a.82.82 0 000 1.64h2.191c.842 0 1.526.685 1.526 1.527v12.598l-3.213-2.292a3.837 3.837 0 00-2.241-.718h-9.92a1.528 1.528 0 01-1.526-1.526v-.735a.82.82 0 00-1.64 0v.735a3.17 3.17 0 003.166 3.167h9.92c.464 0 .91.142 1.288.412l4.51 3.217A.821.821 0 0028 25.45V11.259zM5.899 7.839h9.477a.82.82 0 000-1.64H5.9a.82.82 0 000 1.64zm0 3.828h9.477a.82.82 0 000-1.64H5.9a.82.82 0 100 1.64z"/></g><defs><clipPath id="clip0"><path fill="#fff" d="M0 0h28v28H0z"/></clipPath></defs></svg>