<svg width="20" height="20" fill="none" xmlns="http://www.w3.org/2000/svg"><path d="M10 1.429a2.857 2.857 0 012.854 2.714l.003.143h3.572a.714.714 0 01.083 1.423l-.083.005h-.607L14.98 16.11a2.679 2.679 0 01-2.67 2.463H7.69a2.679 2.679 0 01-2.67-2.463L4.177 5.714h-.605a.714.714 0 01-.71-.63L2.857 5a.714.714 0 01.631-.71l.084-.004h3.571A2.857 2.857 0 0110 1.429zM8.393 8.036a.536.536 0 00-.53.463l-.006.073v5.714l.005.073a.536.536 0 001.062 0l.005-.073V8.572l-.005-.073a.536.536 0 00-.53-.463zm3.214 0a.536.536 0 00-.53.463l-.005.073v5.714l.005.073a.536.536 0 001.061 0l.005-.073V8.572l-.005-.073a.535.535 0 00-.53-.463zM10 2.857A1.429 1.429 0 008.575 4.18l-.003.107h2.857l-.004-.107A1.429 1.429 0 0010 2.857z" fill="#9E9E9E"/></svg>