<svg width="30" height="30" fill="none" xmlns="http://www.w3.org/2000/svg"><g clip-path="url(#clip0)"><path d="M28.982 13.858l-2.043-.884L25.204 9.6a2.732 2.732 0 00-2.458-1.494h-2.987v-.844c0-1.527-1.22-2.773-2.746-2.773H2.733C1.206 4.488 0 5.741 0 7.261v12.927a1.684 1.684 0 001.661 1.708h.382c0 .067-.007.094-.007.134a3.47 3.47 0 006.94.027v-.034c0-.047 0-.067-.007-.134h11.54v.134a3.47 3.47 0 006.939.027v-.167h.864A1.69 1.69 0 0030 20.195v-4.783a1.68 1.68 0 00-1.018-1.554zM5.512 24.18a2.127 2.127 0 01-2.13-2.13c0-1.179.952-2.13 2.13-2.13 1.18 0 2.13.951 2.13 2.13 0 1.172-.957 2.13-2.13 2.13zm12.907-3.61H8.654a3.441 3.441 0 00-3.142-2.003 3.423 3.423 0 00-3.14 2.003h-.684c-.208 0-.348-.161-.348-.369v-3.449h17.08v3.818zm0-13.302v8.144H1.34V7.268c0-.784.61-1.433 1.394-1.433h14.28a1.42 1.42 0 011.406 1.426v.007zm1.34 2.183h2.987a1.414 1.414 0 011.273.757l1.34 2.592h-5.6V9.451zm4.226 14.729a2.127 2.127 0 01-2.13-2.13c0-1.179.951-2.13 2.13-2.13a2.131 2.131 0 010 4.26zm4.682-3.979c0 .208-.14.369-.348.369h-1.193a3.467 3.467 0 00-6.282 0h-1.085v-6.43h6.564l2.13.938a.394.394 0 01.214.361v4.762z" fill="#4F5250"/></g><defs><clipPath id="clip0"><path fill="#fff" d="M0 0h30v30H0z"/></clipPath></defs></svg>