<svg width="24" height="24" fill="none" xmlns="http://www.w3.org/2000/svg"><path d="M23.588 11.479c-.049-.062-1.212-1.52-3.205-2.985C17.719 6.537 14.82 5.502 12 5.502c-2.82 0-5.719 1.035-8.383 2.992C1.624 9.958.461 11.417.412 11.479l-.412.52.412.522c.049.062 1.212 1.52 3.205 2.985C6.281 17.463 9.18 18.498 12 18.498c2.82 0 5.719-1.035 8.383-2.992 1.993-1.465 3.156-2.923 3.205-2.985L24 12l-.412-.521zM12 16.552a4.557 4.557 0 01-4.408-5.691l-1.04-.175a5.589 5.589 0 001.641 5.422c-1.42-.525-2.63-1.262-3.542-1.929A17.658 17.658 0 012.19 12a17.661 17.661 0 012.46-2.178c.912-.667 2.121-1.404 3.543-1.93l.697.787A4.535 4.535 0 0112 7.448 4.557 4.557 0 0116.552 12 4.557 4.557 0 0112 16.552zm7.35-2.373c-.914.667-2.123 1.404-3.544 1.929A5.589 5.589 0 0017.603 12a5.589 5.589 0 00-1.797-4.108c1.422.525 2.63 1.262 3.543 1.929 1.13.825 1.978 1.66 2.46 2.179a17.651 17.651 0 01-2.46 2.18z" fill="#4F5250"/><path d="M9.104 11.115a3.029 3.029 0 10.799-1.298l1.494 1.684-2.293-.386z" fill="#4F5250"/></svg>