<svg width="46" height="20" fill="none" xmlns="http://www.w3.org/2000/svg"><g clip-path="url(#clip0)" fill="#660265"><path d="M7.783 19.763c-1.33 0-2.658-.369-3.883-1.07-1.94-1.14-3.148-3.016-3.69-5.752-.437-2.21-.158-4.419.787-6.26A10.285 10.285 0 013.288 3.77c1.68-1.456 3.586-1.841 5.894-2.174 1.54-.228 3.254-.404 5.387-.527C17.404.894 20.255.824 23 .841v.877c-2.728-.035-5.543.053-8.377.228-2.099.123-3.795.298-5.317.526-2.169.316-3.935.667-5.44 1.982a9.059 9.059 0 00-2.099 2.648C.91 8.75.647 10.767 1.05 12.783c.49 2.473 1.575 4.174 3.289 5.173 1.504.877 3.218 1.158 4.827.79 1.242-.281 2.519-.93 3.778-1.947 2.099-1.683 3.795-3.595 5.037-5.699.455-.772.77-1.578 1.12-2.438.35-.876.7-1.77 1.206-2.595.315-.526 1.277-2.14 2.746-1.911l-.14.859c-.594-.088-1.206.403-1.871 1.49-.472.772-.787 1.596-1.137 2.473-.332.86-.682 1.736-1.172 2.56-1.294 2.192-3.06 4.174-5.247 5.927-1.364 1.088-2.746 1.807-4.128 2.105a6.67 6.67 0 01-1.574.193z"/><path d="M38.217 19.763a7.03 7.03 0 01-1.592-.175c-1.382-.316-2.764-1.018-4.128-2.105-2.186-1.753-3.953-3.752-5.247-5.927-.49-.824-.84-1.718-1.172-2.56-.35-.877-.664-1.701-1.137-2.473-.664-1.104-1.276-1.578-1.871-1.49l-.14-.86c1.47-.227 2.431 1.386 2.746 1.912.507.842.857 1.736 1.207 2.613.332.859.664 1.666 1.12 2.437 1.241 2.087 2.938 4.016 5.036 5.7 1.26.999 2.52 1.665 3.779 1.946 1.608.368 3.322.088 4.827-.79 1.714-.999 2.798-2.7 3.288-5.172.402-2.017.157-4.016-.717-5.682a9.061 9.061 0 00-2.099-2.648c-1.504-1.297-3.27-1.648-5.44-1.981-1.521-.228-3.218-.386-5.317-.526a122.666 122.666 0 00-8.378-.228V.877c2.764-.035 5.597.052 8.43.228 2.135.14 3.849.298 5.388.526 2.309.35 4.215.719 5.894 2.174a9.99 9.99 0 012.291 2.911c.945 1.824 1.242 4.051.788 6.26-.543 2.736-1.767 4.63-3.708 5.752-1.19.667-2.52 1.035-3.848 1.035zM21.146.42v4.578c0 .56.874.56.874 0V.42c0-.561-.874-.561-.874 0z"/><path d="M23.945.42v4.578c0 .56.874.56.874 0V.42c0-.561-.874-.561-.874 0zM.21 7.085c.157.105.297.193.437.316.088.07.245.07.332.052a.495.495 0 00.263-.193c.052-.105.087-.228.052-.333a.496.496 0 00-.192-.263c-.14-.105-.28-.21-.437-.316-.193-.122-.49-.052-.595.158-.123.21-.07.456.14.579zm45.055-.755c-.157.105-.297.193-.437.316-.088.07-.175.14-.192.263a.376.376 0 00.052.333c.122.175.402.298.595.158.14-.105.28-.21.437-.316.192-.123.297-.403.158-.596-.14-.193-.42-.28-.613-.158zm-25.711 3.964c-.035 1.017-.752 1.946-1.486 2.578-.42.368.192.982.612.613.91-.789 1.679-1.946 1.731-3.191.053-.561-.822-.561-.857 0zm5.965 0c.052 1.245.822 2.42 1.731 3.191.42.369 1.05-.245.612-.613-.734-.632-1.434-1.561-1.486-2.578 0-.561-.875-.561-.857 0zM7.468 18.448c-.315 0-.63-.018-.927-.07-1.504-.228-2.763-1.052-3.638-2.35C1.12 13.38.734 10.066 1.906 7.593c.647-1.368 1.784-2.543 3.289-3.42 1.731-.999 4.722-1.63 8.867-1.858 1.837-.105 4.88-.123 5.702-.035v-.018l.21.018.14.175c.122.158.245.316-.297 2.823-.28 1.35-.665 2.56-1.172 3.736-1.26 2.876-3.184 5.418-5.58 7.33-1.381 1.07-3.463 2.104-5.597 2.104zM17.42 3.104c-3.235 0-9.06.245-11.788 1.824C4.285 5.717 3.27 6.75 2.693 7.96c-1.189 2.508-.384 5.612.945 7.576.752 1.122 1.784 1.789 3.043 1.981 2.152.334 4.425-.754 5.824-1.876 2.292-1.824 4.128-4.243 5.318-6.98.49-1.121.857-2.279 1.12-3.559.104-.526.279-1.438.349-1.946-.385-.036-1.05-.053-1.872-.053zm21.147 15.344c-2.117 0-4.216-1.035-5.563-2.122a19.105 19.105 0 01-6.75-11.065c-.526-2.508-.403-2.666-.298-2.824l.122-.158.21-.017c.227-.035.682-.035 1.68-.035.944-.018 2.413 0 4.005.087 4.145.228 7.136.842 8.867 1.86 1.504.876 2.641 2.051 3.288 3.419 1.172 2.472.788 5.787-.996 8.435-.875 1.315-2.134 2.121-3.639 2.35-.297.052-.611.07-.926.07zM26.743 3.138c.07.51.245 1.439.35 1.947.262 1.28.63 2.455 1.12 3.56a18.325 18.325 0 005.334 6.997c1.399 1.122 3.673 2.192 5.824 1.876 1.277-.193 2.291-.86 3.043-1.981 1.33-1.964 2.117-5.068.945-7.576-.577-1.192-1.592-2.245-2.938-3.034C36.975 2.946 28.7 3.07 26.743 3.14z"/></g><defs><clipPath id="clip0"><path fill="#fff" d="M0 0h46v19.763H0z"/></clipPath></defs></svg>