<svg width="46" height="20" fill="none" xmlns="http://www.w3.org/2000/svg"><path d="M43.248 4.117H27.814a2.753 2.753 0 00-2.75 2.75v1.086c-.75-.66-1.442-.994-2.065-.994-.622 0-1.315.335-2.067.995V6.867a2.753 2.753 0 00-2.749-2.75H2.749A2.753 2.753 0 000 6.867v6.266a2.753 2.753 0 002.75 2.75h15.434a2.754 2.754 0 002.75-2.75V9.855C21.558 9.08 22.478 8.28 23 8.28c.52 0 1.441.8 2.066 1.574v3.278a2.753 2.753 0 002.75 2.75h15.433A2.754 2.754 0 0046 13.134V6.867a2.756 2.756 0 00-2.752-2.75zM19.61 13.133c0 .788-.64 1.428-1.427 1.428H2.749a1.43 1.43 0 01-1.427-1.428V6.867c0-.787.64-1.427 1.427-1.427h15.435c.788 0 1.428.64 1.428 1.427v6.266zm25.065 0c0 .788-.64 1.428-1.428 1.428H27.814a1.43 1.43 0 01-1.428-1.428V6.867a1.43 1.43 0 011.428-1.427h15.434c.788 0 1.428.64 1.428 1.427v6.266z" fill="#660265"/></svg>