<svg width="46" height="19" fill="none" xmlns="http://www.w3.org/2000/svg"><g clip-path="url(#clip0)" fill="#660265"><path d="M11.768 18.031c-2.47 0-4.378-1.161-4.57-1.287-2.137-1.215-3.8-3.466-4.781-6.522-.735-2.288-.84-4.182-.84-4.254-.07-.84-1.034-.983-1.086-1l-.298-.036-.07-.304c-.35-1.537.193-2.323.263-2.413l.14-.178h.21C2.75 2.037 6.269.91 6.304.893c7.372-2.413 11.977.697 13.01 1.5l.578-.25 3.117-.053.018.894-2.942.053-.928.393-.21-.178c-.053-.036-4.64-4.04-12.398-1.501-.14.053-3.397 1.09-5.568 1.18-.07.214-.175.607-.07 1.214.613.179 1.436.697 1.523 1.752 0 .089.438 7.363 5.184 10.061l.017.018c.158.107 4.08 2.556 7.845 0l.052-.036s.788-.375 1.716-1.34c.858-.894 2.014-2.466 2.662-4.95l.49-2.77c-.227-.286-.595-.84-.438-1.43.14-.536.666-.912 1.524-1.108.017 0 .77-.197 1.506-.16l-.053.893c-.595-.036-1.243.125-1.26.125-.508.107-.841.286-.876.464-.053.197.192.554.368.733l.175.16-.035.233-.543 3.056c-1.296 4.986-4.448 6.684-4.833 6.88a7.188 7.188 0 01-4.168 1.305z"/><path d="M11.557 16.548c-1.594 0-3.17-.554-4.553-1.644-1.908-1.483-3.152-3.77-3.327-6.094a6.427 6.427 0 010-1.162c.035-.518.105-1 .228-1.465.105-.393.245-.768.403-1.126.56-1.18 1.488-2.09 2.784-2.698a8.774 8.774 0 012.03-.662c2.47-.482 4.904-.232 6.707.697a5.606 5.606 0 012.4 2.306c1.19 2.198 1.348 4.682.455 6.809-1.069 2.484-3.345 4.414-5.796 4.896-.456.09-.893.143-1.331.143zM7.442 3.11c-1.12.536-1.926 1.305-2.399 2.306-.14.303-.263.625-.35.965a7.788 7.788 0 00-.21 1.304c-.018.375-.018.733 0 1.055.157 2.09 1.295 4.146 3.011 5.504 1.576 1.215 3.415 1.698 5.201 1.358 2.206-.429 4.238-2.162 5.2-4.396.806-1.895.649-4.11-.42-6.076a4.894 4.894 0 00-2.048-1.966c-1.611-.84-3.923-1.073-6.164-.626a7.802 7.802 0 00-1.821.572zm26.966 13.439c-.438 0-.876-.036-1.296-.125-2.469-.483-4.745-2.413-5.813-4.897-.91-2.127-.736-4.61.455-6.809.525-.983 1.348-1.769 2.399-2.305 1.803-.93 4.237-1.18 6.706-.697a7.996 7.996 0 012.032.661c1.295.626 2.241 1.52 2.784 2.699.157.357.297.732.403 1.126.122.464.192.965.227 1.465a6.43 6.43 0 010 1.162c-.175 2.34-1.418 4.61-3.327 6.094-1.4 1.054-2.977 1.626-4.57 1.626zm.035-14.243c-1.47 0-2.837.286-3.922.84-.893.464-1.611 1.143-2.05 1.965-1.067 1.966-1.207 4.182-.42 6.077.946 2.251 2.995 3.967 5.201 4.396 1.786.34 3.625-.125 5.2-1.358 1.734-1.34 2.855-3.396 3.013-5.505a10.69 10.69 0 000-1.054 7.545 7.545 0 00-.21-1.305 5.71 5.71 0 00-.35-.965c-.474-1-1.28-1.769-2.4-2.305a6.969 6.969 0 00-1.838-.59 13.193 13.193 0 00-2.224-.196z"/><path d="M34.233 18.032a7.381 7.381 0 01-4.185-1.287c-.385-.196-3.537-1.894-4.833-6.88v-.036l-.578-3.252.175-.161c.175-.179.42-.518.368-.733-.053-.179-.368-.357-.876-.465-.017 0-.665-.16-1.278-.142l-.052-.894a5.49 5.49 0 011.523.16c.858.197 1.366.573 1.506 1.109.157.59-.21 1.144-.438 1.43l.49 2.77c.648 2.484 1.804 4.056 2.662 4.95.928.965 1.716 1.34 1.716 1.34l.053.036c3.782 2.555 7.81.018 7.844 0l.018-.018c4.745-2.698 5.183-9.972 5.183-10.044.087-1.072.91-1.59 1.523-1.769.105-.607 0-1.018-.07-1.215-2.154-.09-5.41-1.126-5.55-1.18-7.793-2.537-12.345 1.466-12.38 1.502l-.21.178-.929-.393-2.941-.053.017-.894 3.117.054.578.25c1.033-.822 5.638-3.914 13.01-1.501.035.018 3.555 1.143 5.551 1.143h.21l.14.18c.07.088.613.875.263 2.412l-.07.304-.298.035c-.035 0-.998.161-1.085 1.019 0 .071-.106 1.966-.841 4.235-.98 3.039-2.627 5.29-4.78 6.523-.175.108-2.102 1.287-4.553 1.287z"/></g><defs><clipPath id="clip0"><path fill="#fff" d="M0 0h46v18.032H0z"/></clipPath></defs></svg>