<svg width="46" height="19" fill="none" xmlns="http://www.w3.org/2000/svg"><path d="M14.434 15.553h-.322c-2.595-.135-5.19-1.085-7.327-2.696-1.578-1.188-3.698-3.02-4.071-5.292-.51-3.121-.407-4.733.322-4.902h.034c.407-.068 9.855-1.425 17.504 2.018.441-.085 1.866-.34 2.748-.254l-.102.848c-.746-.085-2.137.17-2.612.254l-.135.034-.136-.05C13.417 2.34 4.613 3.306 3.34 3.476c-.085.237-.271 1.12.204 3.952.322 1.967 2.29 3.664 3.748 4.75 2.002 1.509 4.444 2.408 6.853 2.51 1.323.067 2.629-.306 3.765-1.07.916-.61 2.137-1.644 2.646-3.018l.017-.051c.356-.933.95-2.51 2.392-2.46l-.034.848c-.763-.033-1.204.933-1.577 1.917l-.017.051c-.594 1.577-1.951 2.73-2.969 3.426a7.04 7.04 0 01-3.935 1.221z" fill="#660265"/><path d="M32.142 15.554c-2.069 0-4.223-1-5.699-2.663-.661-.746-1-1.526-1.357-2.357l-.084-.187c-.407-.95-.882-1.425-1.391-1.408l-.034-.848c.899-.034 1.628.61 2.205 1.917l.085.186c.339.797.644 1.493 1.204 2.12 1.39 1.544 3.426 2.46 5.326 2.358 2.408-.119 4.834-1 6.835-2.51 1.46-1.103 3.427-2.782 3.749-4.75.475-2.832.288-3.714.203-3.952-1.289-.17-10.075-1.136-16.995 2.036l-.136.05-.136-.033c-.016 0-1.73-.356-2.612-.255l-.101-.848c.865-.101 2.29.153 2.747.255 7.667-3.41 17.132-2.053 17.522-2.002h.034c.73.17.83 1.764.322 4.902-.373 2.273-2.51 4.105-4.07 5.292-2.138 1.612-4.733 2.561-7.311 2.68-.102.017-.204.017-.306.017zm-18.216-1.357c-2.24 0-4.614-1.103-7.073-3.308-.984-.882-2.07-2.46-2.138-3.901-.033-.696.17-1.29.594-1.747.204-.238.475-.424.797-.594.56-.288 1.17-.44 1.747-.577h.017a11.686 11.686 0 013.155-.339c1.408.051 2.884.34 4.376.882.848.306 1.713.679 2.579 1.137.848.44 2.001 1.068 2.272 2.408.204 1.018-.135 2.154-1 3.376-.068.084-1.646 2.272-4.58 2.612a5.33 5.33 0 01-.746.05zm-3.274-9.618c-.848 0-1.713.102-2.544.323H8.09c-.543.135-1.103.271-1.578.508a2.38 2.38 0 00-.56.408c-.27.305-.39.678-.372 1.136.05 1.136.966 2.527 1.848 3.308 2.545 2.272 4.953 3.307 7.158 3.053 2.578-.289 3.97-2.24 3.986-2.256.73-1.018 1.018-1.934.848-2.731-.17-.882-.899-1.323-1.849-1.832a19.316 19.316 0 00-2.459-1.103c-1.408-.508-2.799-.78-4.122-.83-.101.016-.22.016-.339.016z" fill="#660265"/><path d="M32.889 14.197a5.94 5.94 0 01-.764-.05c-2.95-.34-4.511-2.511-4.58-2.613-.864-1.221-1.203-2.357-1-3.375.271-1.357 1.425-1.968 2.273-2.409.865-.458 1.73-.848 2.578-1.136 1.51-.543 2.985-.831 4.393-.882a11.112 11.112 0 013.155.34h.017c.594.152 1.187.304 1.747.576.322.17.594.356.797.593.424.475.628 1.052.594 1.748-.068 1.424-1.153 3.019-2.137 3.9-2.46 2.206-4.834 3.308-7.073 3.308zm3.29-9.617h-.356c-1.323.05-2.697.322-4.122.831-.814.288-1.645.662-2.459 1.103-.933.491-1.662.95-1.849 1.831-.152.78.136 1.697.848 2.731.017.017 1.442 1.968 4.003 2.256 2.205.238 4.614-.78 7.158-3.053.882-.78 1.798-2.171 1.849-3.307.017-.458-.102-.832-.373-1.137a1.835 1.835 0 00-.56-.407c-.475-.237-1.035-.373-1.577-.509h-.017a9.373 9.373 0 00-2.545-.339zm-11.449.763c-1.018-.17-2.188-.068-2.205-.068l-.068-.848c.051 0 1.29-.102 2.409.085l-.136.831zm-.661 3.714c-.713-.339-1.408-.084-1.408-.084l-.305-.798a2.785 2.785 0 012.103.102l-.39.78z" fill="#660265"/></svg>