<svg width="46" height="10" fill="none" xmlns="http://www.w3.org/2000/svg"><g clip-path="url(#clip0)"><path d="M45.026.032c-3.588-.815-15.078-.186-18.04.881C23.771 2.07 23 1.939 23 1.939s-.771.131-3.985-1.026C16.052-.154 4.563-.783.974.033.559.126.185.611.134 1.034.03 1.923-.09 3.447.103 4.848c.058.422.433.942.792 1.169l1 .63C2.39 7.915 3.32 9.077 5.096 9.48c3.148.714 6.487.783 6.532.783.08.008.816.078 1.79.078 2.862 0 4.662-.562 5.348-1.667.594-.957 1.029-2.002 1.319-2.82C20.792 3.925 23 4.11 23 4.11s2.197-.209 2.904 1.72c.29.824.727 1.877 1.328 2.844.687 1.105 2.487 1.667 5.35 1.667 1.041 0 1.522-.027 1.743-.079v.003c.139-.002 3.433-.073 6.578-.785 1.873-.425 2.802-1.694 3.276-3.043l.895-.473c.377-.198.765-.695.824-1.117.192-1.401.073-2.924-.032-3.813-.052-.422-.425-.907-.84-1.002zm-25.61 4.056c-.005.023-.536 2.213-1.63 3.977-.436.7-2.068 1.119-4.366 1.119-.561 0-1.159-.026-1.722-.075-.137-.003-3.365-.082-6.344-.757-2.71-.614-2.834-3.752-2.892-5.26-.044-1.106.189-1.411 2.022-1.604 1.066-.112 2.963-.136 4.367-.136.812 0 1.425.008 1.588.01.15 0 3.708.01 7.254.852.81.193 1.347.511 1.6.948.254.438.14.87.124.926zm24.123-.995c-.06 1.508-.183 4.645-2.892 5.26-2.776.628-5.783.741-6.39.759-.008 0-.729.071-1.676.071-2.298 0-3.93-.418-4.365-1.12-1.045-1.684-1.58-3.764-1.641-4.01a1.229 1.229 0 01.132-.891c.253-.436.791-.755 1.6-.948 3.547-.842 7.116-.852 7.272-.852.05 0 .695-.01 1.57-.01 1.404 0 3.301.024 4.367.136 1.833.193 2.066.498 2.023 1.605z" fill="#660265"/></g><defs><clipPath id="clip0"><path fill="#fff" d="M0 0h46v10H0z"/></clipPath></defs></svg>