<svg width="46" height="16" fill="none" xmlns="http://www.w3.org/2000/svg"><g clip-path="url(#clip0)" fill="#660265"><path d="M12.028 15.439c-.438 0-.876-.015-1.33-.047-1.704-.124-3.018-.418-4.144-.93-.298-.14-.642-.31-.939-.544-1.501-1.008-3.128-5.803-3.3-6.346v-.015C1.517 4.687.345 4.454.328 4.454L0 4.423l.016-.326V2.25a5.2 5.2 0 010-.699v-.03C0 1.396-.016 1.21.094 1.055c.172-.218.5-.264.985-.31.078 0 .141-.016.172-.016A50.202 50.202 0 018.477.016c3.379-.077 6.538.186 9.37.791a19.45 19.45 0 011.548.388l.047.016 1.032.652 2.518-.031.016.729-2.737.03-1.142-.713a16.11 16.11 0 00-1.44-.357c-2.783-.59-5.88-.853-9.196-.776a50.472 50.472 0 00-7.101.699c-.047.015-.14.015-.235.03a2.05 2.05 0 00-.406.047V1.6a4.11 4.11 0 000 .62v1.599c.532.232 1.564.993 2.268 3.522.469 1.427 1.924 5.26 3.018 5.973l.032.016c.25.201.547.341.797.465 1.048.481 2.284.76 3.88.87 1.172.077 2.361.03 3.253-.032.187-.015.39-.015.578-.03.876-.047 1.768-.079 2.519-.435.891-.42 1.407-1.335 1.689-2.033h.015c.094-.233.438-.946 1.627-3.46a2.854 2.854 0 012.55-1.986l.062.73c-1.548.139-1.908 1.458-1.924 1.473l-.015.062s-1.549 3.259-1.627 3.445c-.47 1.164-1.189 1.986-2.049 2.405-.876.419-1.861.465-2.8.512-.187.015-.375.015-.563.03a20.13 20.13 0 01-2.033.094z"/><path d="M11.59 14.384c-1.298 0-2.784-.155-4.035-.885-1.909-1.086-2.894-3.196-3.551-4.918-.47-1.226-.954-2.7-.954-4.236 0-1.164.375-2.033 1.08-2.452.156-.093.328-.17.53-.217.173-.046.33-.077.486-.108a27.618 27.618 0 016.506-.435 29.14 29.14 0 013.285.373c.125.015.266.046.407.062.829.14 1.689.279 2.471.605 1.204.496 2.111 1.598 2.424 2.948.313 1.334.078 2.855-.672 4.546-.86 1.877-2.05 3.243-3.457 3.925-1.157.574-2.487.699-3.629.76-.297.016-.594.032-.891.032zM10.182 1.83c-1.658 0-3.3.156-4.927.466-.14.03-.281.046-.422.093a2.81 2.81 0 00-.36.14c-.625.372-.72 1.303-.72 1.815 0 1.412.47 2.808.908 3.972.61 1.598 1.533 3.569 3.238 4.546 1.392.792 3.16.822 4.535.76 1.064-.046 2.3-.17 3.332-.682 1.58-.776 2.55-2.374 3.081-3.584.688-1.536.892-2.902.626-4.081-.25-1.102-1.017-2.033-1.986-2.436-.689-.28-1.518-.419-2.3-.559-.14-.015-.266-.046-.406-.062a24.478 24.478 0 00-3.191-.357c-.47-.03-.939-.03-1.408-.03zm23.79 13.608c-.735 0-1.439-.03-2.017-.077-.188-.016-.376-.016-.564-.031-.938-.047-1.923-.093-2.8-.512-.86-.42-1.579-1.242-2.048-2.405a895.156 895.156 0 01-1.627-3.445l-.015-.062c-.016-.046-.392-1.334-1.924-1.474l.062-.729a2.854 2.854 0 012.55 1.986c1.188 2.514 1.533 3.227 1.626 3.46h.016c.281.698.798 1.614 1.69 2.033.75.357 1.642.403 2.517.434.188.016.392.016.579.031.892.062 2.08.109 3.253.031 1.611-.109 2.847-.388 3.88-.869.25-.124.547-.263.797-.465l.031-.016c1.095-.713 2.55-4.546 3.02-5.973.703-2.53 1.735-3.29 2.267-3.523V2.234c0-.217.016-.419 0-.62v-.078c-.125-.015-.313-.046-.407-.046-.094-.016-.187-.016-.234-.031-2.378-.404-4.755-.652-7.101-.699-3.316-.077-6.413.187-9.197.776-.438.093-.954.217-1.44.357l-1.14.714-2.754-.047.016-.729 2.518.031 1.032-.652.047-.015a15.23 15.23 0 011.549-.388c2.83-.605 5.99-.885 9.369-.791 2.377.062 4.801.294 7.21.713.031 0 .11.016.172.016.485.046.814.093.986.31.125.155.109.342.094.466v.046c.015.217.015.45 0 .683v2.172l-.329.031s-1.173.233-1.97 3.088v.015c-.189.543-1.8 5.338-3.301 6.346a3.66 3.66 0 01-.938.543c-1.127.512-2.44.807-4.146.931-.453.062-.907.062-1.329.062z"/><path d="M34.41 14.384c-.313 0-.61-.016-.891-.016-1.142-.046-2.472-.186-3.63-.76-1.407-.698-2.596-2.048-3.425-3.941-.75-1.676-.97-3.212-.672-4.546.313-1.35 1.22-2.452 2.424-2.948.767-.326 1.627-.466 2.471-.605.141-.016.266-.047.407-.062 1.08-.187 2.174-.31 3.285-.373a27.62 27.62 0 016.507.435c.14.03.312.062.484.108.204.062.376.124.532.217.704.42 1.08 1.288 1.08 2.452 0 1.536-.486 2.995-.955 4.236-.672 1.707-1.673 3.817-3.582 4.918-1.25.714-2.737.885-4.035.885zM35.802 1.83c-.47 0-.938.016-1.407.031a27.514 27.514 0 00-3.191.357c-.141.016-.266.047-.407.062-.798.14-1.611.264-2.3.559-.969.403-1.735 1.334-1.986 2.436-.265 1.18-.062 2.545.626 4.08.532 1.195 1.502 2.793 3.081 3.585 1.048.512 2.268.636 3.332.682 1.376.063 3.144.032 4.536-.76 1.705-.977 2.628-2.948 3.237-4.546.438-1.18.907-2.56.907-3.972 0-.512-.093-1.443-.72-1.815a1.084 1.084 0 00-.359-.14l-.422-.093c-1.611-.326-3.269-.466-4.927-.466zM21.068 4.422h4.005c.5 0 .5-.776 0-.776h-4.005c-.5 0-.5.776 0 .776zm.782 1.334h2.44c.501 0 .501-.776 0-.776h-2.44c-.5 0-.5.776 0 .776z"/></g><defs><clipPath id="clip0"><path fill="#fff" d="M0 0h46v15.438H0z"/></clipPath></defs></svg>