<svg width="43" height="26" fill="none" xmlns="http://www.w3.org/2000/svg"><g clip-path="url(#clip0)" fill="#660265"><path d="M5.543 25.083c-.42 0-.911-.127-1.386-.51-1.55-1.22-2.698-3.042-3.391-5.41-.693-2.35-.803-4.718-.766-6.303.11-4.772 3.464-9.235 8.17-10.856C11.907.71 16.137.054 21.134 0c2.99-.036 5.635.128 8.133.492 3.264.474 6.656 1.13 9.264 3.37 3.392 2.933 5.106 8.27 4.267 13.28-.054.382-.146.764-.237 1.147-.474 2.04-1.112 4.117-2.389 5.556-1.477 1.676-3.501.382-4.249-.11-1.076-.692-2.133-1.348-3.136-1.985a225.496 225.496 0 01-3.647-2.332c-.584-.382-1.186-.801-1.77-1.202-.51-.364-1.057-.729-1.568-1.075-.164-.109-.346-.218-.529-.328-.82-.491-1.732-1.038-1.987-2.222l-.857-2.714c-.037-.073-.2-.364-.93-.364-.164 0-.766.054-.876.364l-.364 1.293c-.073.255-.128.51-.2.784-.11.455-.22.947-.402 1.402-.219.583-.675.91-1.076 1.202l-1.732 1.257c-1.168.838-2.335 1.694-3.484 2.532l-1.55 1.13-5.16 3.26c-.22.164-.62.346-1.113.346zm-.82-1.238c.766.6 1.404.164 1.422.146l.018-.019 5.161-3.26 1.514-1.112a422.176 422.176 0 013.483-2.532l1.732-1.257c.347-.255.62-.455.748-.783.146-.4.255-.856.365-1.293.054-.273.127-.547.2-.82l.365-1.311c.255-.838 1.222-1.039 1.75-1.02 1.423 0 1.751.838 1.824 1.038l.857 2.787c.164.801.803 1.184 1.55 1.64.183.109.383.218.566.345.528.347 1.075.73 1.586 1.075.584.4 1.167.802 1.75 1.184 1.24.802 2.463 1.585 3.63 2.314 1.02.637 2.078 1.311 3.154 1.985 1.496.966 2.39 1.038 3.082.255 1.149-1.293 1.733-3.242 2.189-5.155.09-.364.164-.729.218-1.075.803-4.681-.784-9.69-3.957-12.423-2.425-2.095-5.544-2.696-8.808-3.17-2.443-.364-5.051-.51-7.987-.473-4.887.055-9.027.692-12.674 1.949-4.34 1.494-7.458 5.629-7.55 10.019-.036 2.368.22 8.179 3.812 10.966z"/><path d="M5.69 23.152c-.31 0-.602-.073-.857-.273-1.259-1.02-3.374-3.516-3.246-8.744.018-1.056.146-2.058.328-2.987.401-1.858 1.13-3.461 2.17-4.755.474-.6 1.222-1.42 2.079-2.022.912-.619 1.732-.856 2.48-.674 1.112.274 2.152 1.057 3.082 1.767l.437.328c.712.529 1.423 1.093 2.116 1.64.328.273.675.528 1.003.801l2.024 1.603c.693.547 1.313 1.111 1.422 2.24a4.05 4.05 0 01-.529 2.442c-.273.492-.693.783-1.094 1.074-.073.055-.164.11-.237.183-.529.4-1.057.801-1.604 1.202-1.295.947-2.608 1.913-3.885 2.823l-2.626 1.913-.036.037c-.657.455-1.951 1.402-3.027 1.402zM6.71 5.118c-.801.565-1.53 1.403-1.896 1.84-.948 1.184-1.623 2.66-1.987 4.372a15.21 15.21 0 00-.31 2.823c-.037 1.676.164 5.811 2.9 7.997.2.164.838.237 2.753-1.147l.036-.037c.876-.637 1.75-1.275 2.644-1.913 1.277-.928 2.59-1.876 3.885-2.823.529-.4 1.057-.783 1.586-1.184.091-.073.182-.127.255-.182.347-.237.657-.474.84-.802.31-.546.473-1.257.4-1.894-.072-.71-.4-1.093-1.075-1.621l-2.025-1.603c-.346-.274-.674-.529-1.003-.802a62.945 62.945 0 00-2.078-1.621l-.438-.328c-.857-.656-1.824-1.384-2.754-1.603-.474-.127-1.057.055-1.732.528zM38.331 22.97c-1.02 0-3.738-1.767-4.321-2.15-.31-.182-4.085-2.295-6.2-3.843-.53-.4-1.076-.802-1.605-1.202-.073-.055-.164-.128-.237-.183-.402-.291-.821-.582-1.095-1.074-.419-.71-.601-1.603-.528-2.441.11-1.13.73-1.713 1.422-2.24l2.024-1.604c.328-.255.675-.528 1.003-.801a49.777 49.777 0 012.116-1.64c.145-.109.273-.218.437-.328.93-.692 1.97-1.493 3.082-1.767.73-.182 1.568.055 2.48.674.857.602 1.605 1.421 2.079 2.022 1.04 1.294 1.769 2.897 2.17 4.755.2.929.31 1.93.328 2.987.055 2.35-1.24 7.232-2.48 8.489-.218.237-.456.346-.675.346zm-3.41-18.416c-.09 0-.2.018-.291.036-.93.219-1.897.966-2.754 1.603l-.438.328a62.95 62.95 0 00-2.078 1.621c-.329.273-.675.547-1.003.802l-2.025 1.603c-.674.528-1.003.91-1.076 1.62-.073.638.092 1.349.402 1.895.182.328.51.547.838.802.092.054.183.127.256.182.529.4 1.058.802 1.586 1.184 2.116 1.567 6.073 3.77 6.11 3.789l.036.018c1.222.82 3.173 1.968 3.793 2.004.674-.4 2.352-5.01 2.298-7.906a15.558 15.558 0 00-.31-2.823c-.365-1.713-1.04-3.188-1.988-4.372-.365-.456-1.095-1.275-1.897-1.84-.547-.364-1.04-.546-1.459-.546zm-13.33 5.429c-.93 0-1.933-.055-2.845-.328-.802-.237-1.404-.729-1.987-1.184l-.037-.037c-.875-.692-1.787-1.42-2.662-2.13-.146-.128-.347-.256-.53-.383-.692-.474-1.458-1.002-1.695-1.84a1.224 1.224 0 01.11-.947c.236-.42.729-.71 1.495-.911.09-.018.2-.055.291-.073 3.228-.783 6.857-1.057 10.778-.802 1.094.073 2.17.237 3.21.383.528.073 1.075.164 1.622.237.128.018 1.331.182 1.587 1.02.255.838-.62 1.603-.912 1.858a94.84 94.84 0 00-1.477 1.293c-.73.638-1.495 1.312-2.243 1.95a7.31 7.31 0 00-.401.364c-.456.419-.93.838-1.477 1.11-.748.365-1.569.42-2.28.438-.182-.018-.365-.018-.547-.018zm-7.659-6.94c-.091.018-.2.054-.292.072-.675.164-.875.365-.93.474-.018.036-.055.11-.018.237.146.528.784.965 1.331 1.348.219.146.401.273.584.419.893.71 1.805 1.439 2.662 2.131l.037.036c.565.456 1.04.838 1.677 1.02.967.292 2.116.292 3.1.274.62-.018 1.313-.055 1.897-.346.438-.219.857-.601 1.276-.966l.438-.382a113.23 113.23 0 002.225-1.95c.492-.437.985-.856 1.477-1.293.565-.492.675-.801.638-.91-.054-.183-.529-.347-.82-.383-.547-.073-1.113-.146-1.642-.237-1.02-.146-2.078-.31-3.136-.382-3.811-.2-7.35.072-10.504.838z"/></g><defs><clipPath id="clip0"><path fill="#fff" d="M0 0h43v25.083H0z"/></clipPath></defs></svg>