<svg width="20" height="20" fill="none" xmlns="http://www.w3.org/2000/svg"><path clip-rule="evenodd" d="M6.19 3.81a.952.952 0 01.953.952v1.905a.952.952 0 11-1.905 0V4.762a.952.952 0 01.952-.952v0z" stroke="#4F5250" stroke-linecap="round" stroke-linejoin="round"/><path d="M17.62 5.714H7.142m-1.904 0H2.381" stroke="#4F5250" stroke-linecap="round" stroke-linejoin="round"/><path clip-rule="evenodd" d="M6.19 13.333a.952.952 0 01.953.953v1.905a.952.952 0 01-1.905 0v-1.905a.952.952 0 01.952-.953z" stroke="#4F5250" stroke-linecap="round" stroke-linejoin="round"/><path d="M17.62 15.238H7.142m-1.904 0H2.381" stroke="#4F5250" stroke-linecap="round" stroke-linejoin="round"/><path clip-rule="evenodd" d="M13.81 8.571a.952.952 0 01.952.953v1.905a.952.952 0 01-1.905 0V9.524a.952.952 0 01.953-.953v0z" stroke="#4F5250" stroke-linecap="round" stroke-linejoin="round"/><path d="M12.857 10.476H2.381m15.239 0h-2.858" stroke="#4F5250" stroke-linecap="round" stroke-linejoin="round"/></svg>