<svg width="46" height="20" fill="none" xmlns="http://www.w3.org/2000/svg"><g clip-path="url(#clip0)" stroke="#660265" stroke-miterlimit="10"><path d="M23.088.613C17.84.47 12.494.41 7.26.881c-1.603.141-3.253.217-4.79.736C.931 2.137.817 4.394.68 5.707a29.46 29.46 0 00.137 7.42c.364 2.454 1.413 4.556 3.97 5.199 2.516.633 5.29.306 7.812-.113a43.27 43.27 0 001.939-.368 5.887 5.887 0 003.367-2.155c.653-.853.95-1.945 1.348-2.932.425-1.058.863-2.11 1.341-3.145.303-.65.614-1.579 1.176-2.066.357-.333.828-.52 1.317-.519"/><path d="M22.912.613c5.247-.137 10.594-.19 15.827.274 1.603.143 3.253.217 4.79.736 1.538.52 1.649 2.777 1.79 4.09a29.558 29.558 0 01-.129 7.414c-.366 2.454-1.415 4.556-3.971 5.198-2.517.634-5.29.307-7.811-.112a42.556 42.556 0 01-1.939-.368 5.88 5.88 0 01-3.365-2.156c-.653-.852-.95-1.944-1.348-2.932a67.506 67.506 0 00-1.341-3.145c-.303-.65-.614-1.578-1.176-2.065a1.928 1.928 0 00-1.317-.52m-2.316 2.567c.67-1.569 2.124-5.002.087-6.17-.69-.394-1.697-.42-2.474-.541a43.253 43.253 0 00-2.948-.352 44.462 44.462 0 00-5.93-.098c-1.86.095-3.714.3-5.55.613-3.3.552-3.253 5.64-3.165 8.133"/><path d="M25.42 9.594c-.672-1.569-2.126-5.002-.089-6.17.691-.394 1.697-.42 2.474-.541a43.253 43.253 0 012.949-.352 44.461 44.461 0 015.93-.098c1.86.095 3.713.3 5.55.613 3.302.559 3.255 5.646 3.167 8.139"/></g><defs><clipPath id="clip0"><path fill="#fff" d="M0 0h46v19.193H0z"/></clipPath></defs></svg>