<svg width="22" height="22" fill="none" xmlns="http://www.w3.org/2000/svg"><path d="M11 20.776a1.29 1.29 0 01-.85-.32 255.102 255.102 0 00-2.502-2.151l-.004-.003c-2.216-1.89-4.13-3.52-5.462-5.127C.693 11.379 0 9.675 0 7.815c0-1.808.62-3.476 1.745-4.696a5.916 5.916 0 014.4-1.916c1.27 0 2.434.402 3.458 1.193.516.4.984.89 1.397 1.46.413-.57.88-1.06 1.398-1.46 1.023-.791 2.186-1.193 3.456-1.193 1.7 0 3.262.68 4.4 1.916C21.38 4.339 22 6.007 22 7.815c0 1.86-.693 3.564-2.182 5.36-1.332 1.607-3.245 3.238-5.461 5.126a252.68 252.68 0 00-2.507 2.156 1.29 1.29 0 01-.85.32zM6.146 2.492a4.641 4.641 0 00-3.453 1.5c-.906.982-1.404 2.34-1.404 3.823 0 1.565.581 2.964 1.885 4.537 1.26 1.521 3.135 3.119 5.306 4.969l.004.003c.759.647 1.619 1.38 2.514 2.163.9-.784 1.762-1.519 2.523-2.167 2.17-1.85 4.045-3.447 5.305-4.968 1.304-1.573 1.885-2.972 1.885-4.537 0-1.483-.498-2.84-1.404-3.823a4.64 4.64 0 00-3.453-1.5c-.978 0-1.875.31-2.668.924-.707.546-1.199 1.237-1.487 1.72a.807.807 0 01-.699.397.807.807 0 01-.699-.397c-.288-.483-.78-1.174-1.487-1.72a4.274 4.274 0 00-2.668-.924z" fill="#4F5250"/></svg>