<svg width="24" height="24" fill="none" xmlns="http://www.w3.org/2000/svg"><path d="M20.585 0H3.415C1.477 0 0 1.477 0 3.415v17.17C0 22.523 1.477 24 3.415 24h17.17C22.523 24 24 22.523 24 20.585V3.415C24 1.477 22.523 0 20.585 0zM12 19.2c3.97 0 7.2-3.139 7.2-6.923 0-.646-.092-1.385-.277-1.938h2.03v9.784a.924.924 0 01-.922.923H3.969a.925.925 0 01-.923-.923v-9.877H5.17a7.026 7.026 0 00-.277 1.939C4.8 16.06 8.031 19.2 12 19.2zm0-2.77c-2.585 0-4.615-2.03-4.615-4.522 0-2.493 2.03-4.523 4.615-4.523 2.585 0 4.615 2.03 4.615 4.523 0 2.584-2.03 4.523-4.615 4.523zm8.861-9.876c0 .554-.461 1.015-1.015 1.015h-2.584a1.024 1.024 0 01-1.016-1.015V4.062c0-.554.462-1.016 1.016-1.016h2.584c.554 0 1.015.462 1.015 1.016v2.492z" fill="#fff"/></svg>