<svg width="319" height="57" fill="none" xmlns="http://www.w3.org/2000/svg"><mask id="path-1-outside-1" maskUnits="userSpaceOnUse" x="0" y="0" width="319" height="57" fill="#000"><path fill="#fff" d="M0 0h319v57H0z"/><path d="M37.854 47.208c-.79 0-1.393-.375-1.809-1.123l-4.801-11.474c-.25-.54-.748-.81-1.497-.81H11.102c-.748 0-1.247.332-1.497.997L4.866 46.085c-.416.748-1.018 1.123-1.808 1.123-.25 0-.52-.063-.81-.188C1.415 46.688 1 46.106 1 45.274c0-.25.042-.498.125-.748l17.46-41.593c.333-.79.956-1.185 1.87-1.185.832 0 1.456.395 1.872 1.185l17.46 41.593c.125.25.187.499.187.748 0 .832-.437 1.414-1.31 1.746a2.07 2.07 0 01-.81.188zm-9.728-17.46c.582 0 .873-.146.873-.437 0-.125-.063-.312-.187-.562-.125-.29-.645-1.538-1.56-3.741-.914-2.203-1.932-4.635-3.055-7.296l-3.18-7.732c-.166-.54-.353-.811-.561-.811-.416 0-3.035 6.111-7.857 18.333a76.7 76.7 0 00-.562 1.497.553.553 0 00-.062.25c0 .332.27.498.81.498h15.34zM59.273 48.08c-4.157 0-7.816-1.766-10.975-5.3-.042-.083-.104-.125-.187-.125h-.125c-.083 0-.125.125-.125.374v2.37c0 .54-.187.998-.561 1.372-.374.333-.831.499-1.372.499-.665 0-1.185-.166-1.559-.499a1.866 1.866 0 01-.561-1.372V3.62c0-.499.187-.935.561-1.31.374-.374.81-.56 1.31-.56.706 0 1.247.186 1.621.56.374.375.561.811.561 1.31v17.897c0 .25.125.374.374.374.125 0 .23-.062.312-.187 2.827-3.367 6.402-5.051 10.726-5.051 4.323 0 8.023 1.517 11.1 4.552 3.076 3.035 4.614 6.735 4.614 11.1 0 4.365-1.538 8.086-4.614 11.162-3.077 3.076-6.777 4.614-11.1 4.614zm0-3.741c3.242 0 6.007-1.185 8.294-3.554 2.286-2.412 3.43-5.238 3.43-8.481 0-3.243-1.144-6.028-3.43-8.356-2.287-2.37-5.051-3.555-8.294-3.555-3.243 0-6.007 1.185-8.294 3.555-2.286 2.328-3.43 5.113-3.43 8.356 0 3.242 1.144 6.07 3.43 8.48 2.287 2.37 5.051 3.555 8.294 3.555zm36.294 3.741c-4.157 0-7.815-1.766-10.975-5.3-.041-.083-.104-.125-.187-.125h-.125c-.083 0-.124.125-.124.374v2.37c0 .54-.187.998-.562 1.372-.374.333-.83.499-1.371.499-.665 0-1.185-.166-1.56-.499a1.866 1.866 0 01-.56-1.372V3.62c0-.499.187-.935.56-1.31.375-.374.811-.56 1.31-.56.707 0 1.247.186 1.621.56.375.375.562.811.562 1.31v17.897c0 .25.124.374.374.374.125 0 .228-.062.312-.187 2.827-3.367 6.402-5.051 10.725-5.051 4.324 0 8.024 1.517 11.1 4.552 3.076 3.035 4.615 6.735 4.615 11.1 0 4.365-1.539 8.086-4.615 11.162-3.076 3.076-6.776 4.614-11.1 4.614zm0-3.741c3.243 0 6.007-1.185 8.294-3.554 2.286-2.412 3.43-5.238 3.43-8.481 0-3.243-1.144-6.028-3.43-8.356-2.287-2.37-5.051-3.555-8.294-3.555-3.242 0-6.007 1.185-8.293 3.555-2.287 2.328-3.43 5.113-3.43 8.356 0 3.242 1.143 6.07 3.43 8.48 2.286 2.37 5.05 3.555 8.293 3.555zm35.484 3.741c-4.365 0-8.086-1.538-11.162-4.614-3.076-3.076-4.615-6.797-4.615-11.162 0-4.365 1.539-8.065 4.615-11.1 3.076-3.035 6.797-4.552 11.162-4.552 4.365 0 8.086 1.517 11.162 4.552 2.204 2.203 3.513 4.864 3.929 7.982l.062.436c0 .375-.104.811-.312 1.31-.207.499-.748.748-1.621.748h-23.883c-.416 0-.686.083-.811.25-.125.124-.187.332-.187.623v.312c.25 3.118 1.393 5.675 3.43 7.67 2.536 2.536 5.279 3.804 8.231 3.804 1.58 0 3.097-.333 4.552-.998 1.497-.706 2.619-1.517 3.368-2.432.997-1.247 1.829-1.87 2.494-1.87.374 0 .79.124 1.247.374.582.457.873.997.873 1.621 0 .54-.208 1.06-.623 1.559-3.118 3.658-7.089 5.487-11.911 5.487zm9.603-20.39c.624 0 .936-.125.936-.375 0-.208-.125-.457-.375-.748v-.063c-.415-.83-1.06-1.642-1.933-2.431-2.286-2.453-5.03-3.68-8.231-3.68-3.243 0-6.007 1.227-8.294 3.68-.956.997-1.683 1.912-2.182 2.743-.125.25-.187.437-.187.562 0 .083.041.166.125.249.124.042 6.838.062 20.141.062zm58.058 20.39c-4.324 0-8.273-1.06-11.848-3.18a24.031 24.031 0 01-8.543-8.543c-2.121-3.575-3.181-7.524-3.181-11.848 0-4.365 1.06-8.314 3.181-11.848 2.12-3.575 4.968-6.402 8.543-8.48C190.439 2.06 194.388 1 198.712 1c4.365 0 8.273 1.06 11.723 3.18 3.451 2.079 6.174 4.906 8.169 8.481 2.037 3.534 3.056 7.483 3.056 11.848 0 4.324-1.019 8.273-3.056 11.848-1.995 3.575-4.718 6.423-8.169 8.543-3.45 2.12-7.358 3.18-11.723 3.18zm0-3.741c3.617 0 6.838-.894 9.665-2.681 2.869-1.83 5.134-4.24 6.797-7.234 1.663-3.035 2.495-6.34 2.495-9.915 0-3.617-.832-6.922-2.495-9.915-1.663-3.035-3.928-5.446-6.797-7.233-2.827-1.788-6.048-2.682-9.665-2.682-5.405 0-10.019 1.954-13.844 5.862-3.824 3.866-5.737 8.522-5.737 13.968 0 3.575.873 6.88 2.619 9.915a21.147 21.147 0 007.109 7.234c2.993 1.787 6.278 2.681 9.853 2.681zM228.919 56c-.582 0-1.061-.187-1.435-.561-.332-.333-.499-.77-.499-1.31V19.333c0-.54.167-.997.499-1.371.374-.375.853-.562 1.435-.562.582 0 1.06.187 1.434.562.374.374.561.83.561 1.371v1.809c0 .374.125.56.374.56.166 0 .312-.082.437-.249 1.247-1.538 2.847-2.723 4.801-3.554a16.058 16.058 0 016.236-1.247c4.365 0 8.086 1.538 11.162 4.614 3.077 3.077 4.615 6.798 4.615 11.163s-1.559 8.065-4.677 11.1c-3.118 3.034-6.86 4.551-11.225 4.551-4.406 0-8.127-1.662-11.162-4.988-.041-.083-.104-.125-.187-.125h-.062c-.208 0-.312.166-.312.499v10.663c0 .54-.187.977-.561 1.31-.374.374-.852.561-1.434.561zm13.718-11.661c3.285 0 6.091-1.164 8.419-3.492 2.328-2.37 3.492-5.176 3.492-8.418 0-3.243-1.164-6.05-3.492-8.419-2.287-2.411-5.051-3.617-8.294-3.617-3.243 0-6.028 1.206-8.356 3.617-2.286 2.37-3.43 5.176-3.43 8.419 0 3.242 1.123 6.048 3.368 8.418 2.286 2.328 5.051 3.492 8.293 3.492zm27.493 2.931c-.582 0-1.06-.187-1.434-.561a1.866 1.866 0 01-.561-1.372V22.139c0-.498-.229-.748-.686-.748h-2.993c-.541 0-.998-.187-1.372-.561-.374-.374-.561-.852-.561-1.434s.187-1.06.561-1.434a1.865 1.865 0 011.372-.562h2.931c.499 0 .748-.332.748-.997V3.68c0-.54.187-.997.561-1.371.374-.375.852-.562 1.434-.562.583 0 1.061.187 1.435.562.374.374.561.831.561 1.371v12.91c0 .498.249.769.748.81h2.931c.541 0 .998.187 1.372.562.374.374.561.852.561 1.434s-.187 1.06-.561 1.434a1.865 1.865 0 01-1.372.561h-2.058c-.831 0-1.309.042-1.434.125-.125.083-.187.27-.187.561v23.26c0 .54-.187.997-.561 1.372-.374.374-.852.56-1.435.56zm14.693 0c-.582 0-1.06-.187-1.434-.561a1.866 1.866 0 01-.561-1.372V19.27c0-.54.187-.998.561-1.372.374-.374.852-.561 1.434-.561s1.06.187 1.434.561c.375.374.562.831.562 1.372v26.066c0 .54-.187.997-.562 1.372-.374.374-.852.56-1.434.56zm23.014.81c-4.365 0-8.086-1.538-11.162-4.614-3.035-3.118-4.552-6.839-4.552-11.162 0-4.324 1.517-8.003 4.552-11.038 3.076-3.076 6.797-4.614 11.162-4.614 3.742 0 7.068 1.164 9.978 3.492.332.208.498.624.498 1.247v3.43c0 .582-.124.873-.374.873-.208 0-.54-.25-.997-.748a13.019 13.019 0 00-4.054-3.305c-1.538-.832-3.222-1.248-5.051-1.248-3.242 0-6.007 1.185-8.293 3.555-2.287 2.328-3.43 5.113-3.43 8.356 0 3.242 1.143 6.07 3.43 8.48 2.286 2.37 5.051 3.555 8.293 3.555 1.954 0 3.742-.478 5.363-1.434a12.7 12.7 0 004.116-3.742c.249-.332.478-.499.686-.499a.48.48 0 01.187.063c.083.041.124.25.124.623v3.867c0 .623-.187 1.06-.561 1.31-2.868 2.369-6.173 3.553-9.915 3.553z"/></mask><path d="M37.854 47.208c-.79 0-1.393-.375-1.809-1.123l-4.801-11.474c-.25-.54-.748-.81-1.497-.81H11.102c-.748 0-1.247.332-1.497.997L4.866 46.085c-.416.748-1.018 1.123-1.808 1.123-.25 0-.52-.063-.81-.188C1.415 46.688 1 46.106 1 45.274c0-.25.042-.498.125-.748l17.46-41.593c.333-.79.956-1.185 1.87-1.185.832 0 1.456.395 1.872 1.185l17.46 41.593c.125.25.187.499.187.748 0 .832-.437 1.414-1.31 1.746a2.07 2.07 0 01-.81.188zm-9.728-17.46c.582 0 .873-.146.873-.437 0-.125-.063-.312-.187-.562-.125-.29-.645-1.538-1.56-3.741-.914-2.203-1.932-4.635-3.055-7.296l-3.18-7.732c-.166-.54-.353-.811-.561-.811-.416 0-3.035 6.111-7.857 18.333a76.7 76.7 0 00-.562 1.497.553.553 0 00-.062.25c0 .332.27.498.81.498h15.34zM59.273 48.08c-4.157 0-7.816-1.766-10.975-5.3-.042-.083-.104-.125-.187-.125h-.125c-.083 0-.125.125-.125.374v2.37c0 .54-.187.998-.561 1.372-.374.333-.831.499-1.372.499-.665 0-1.185-.166-1.559-.499a1.866 1.866 0 01-.561-1.372V3.62c0-.499.187-.935.561-1.31.374-.374.81-.56 1.31-.56.706 0 1.247.186 1.621.56.374.375.561.811.561 1.31v17.897c0 .25.125.374.374.374.125 0 .23-.062.312-.187 2.827-3.367 6.402-5.051 10.726-5.051 4.323 0 8.023 1.517 11.1 4.552 3.076 3.035 4.614 6.735 4.614 11.1 0 4.365-1.538 8.086-4.614 11.162-3.077 3.076-6.777 4.614-11.1 4.614zm0-3.741c3.242 0 6.007-1.185 8.294-3.554 2.286-2.412 3.43-5.238 3.43-8.481 0-3.243-1.144-6.028-3.43-8.356-2.287-2.37-5.051-3.555-8.294-3.555-3.243 0-6.007 1.185-8.294 3.555-2.286 2.328-3.43 5.113-3.43 8.356 0 3.242 1.144 6.07 3.43 8.48 2.287 2.37 5.051 3.555 8.294 3.555zm36.294 3.741c-4.157 0-7.815-1.766-10.975-5.3-.041-.083-.104-.125-.187-.125h-.125c-.083 0-.124.125-.124.374v2.37c0 .54-.187.998-.562 1.372-.374.333-.83.499-1.371.499-.665 0-1.185-.166-1.56-.499a1.866 1.866 0 01-.56-1.372V3.62c0-.499.187-.935.56-1.31.375-.374.811-.56 1.31-.56.707 0 1.247.186 1.621.56.375.375.562.811.562 1.31v17.897c0 .25.124.374.374.374.125 0 .228-.062.312-.187 2.827-3.367 6.402-5.051 10.725-5.051 4.324 0 8.024 1.517 11.1 4.552 3.076 3.035 4.615 6.735 4.615 11.1 0 4.365-1.539 8.086-4.615 11.162-3.076 3.076-6.776 4.614-11.1 4.614zm0-3.741c3.243 0 6.007-1.185 8.294-3.554 2.286-2.412 3.43-5.238 3.43-8.481 0-3.243-1.144-6.028-3.43-8.356-2.287-2.37-5.051-3.555-8.294-3.555-3.242 0-6.007 1.185-8.293 3.555-2.287 2.328-3.43 5.113-3.43 8.356 0 3.242 1.143 6.07 3.43 8.48 2.286 2.37 5.05 3.555 8.293 3.555zm35.484 3.741c-4.365 0-8.086-1.538-11.162-4.614-3.076-3.076-4.615-6.797-4.615-11.162 0-4.365 1.539-8.065 4.615-11.1 3.076-3.035 6.797-4.552 11.162-4.552 4.365 0 8.086 1.517 11.162 4.552 2.204 2.203 3.513 4.864 3.929 7.982l.062.436c0 .375-.104.811-.312 1.31-.207.499-.748.748-1.621.748h-23.883c-.416 0-.686.083-.811.25-.125.124-.187.332-.187.623v.312c.25 3.118 1.393 5.675 3.43 7.67 2.536 2.536 5.279 3.804 8.231 3.804 1.58 0 3.097-.333 4.552-.998 1.497-.706 2.619-1.517 3.368-2.432.997-1.247 1.829-1.87 2.494-1.87.374 0 .79.124 1.247.374.582.457.873.997.873 1.621 0 .54-.208 1.06-.623 1.559-3.118 3.658-7.089 5.487-11.911 5.487zm9.603-20.39c.624 0 .936-.125.936-.375 0-.208-.125-.457-.375-.748v-.063c-.415-.83-1.06-1.642-1.933-2.431-2.286-2.453-5.03-3.68-8.231-3.68-3.243 0-6.007 1.227-8.294 3.68-.956.997-1.683 1.912-2.182 2.743-.125.25-.187.437-.187.562 0 .083.041.166.125.249.124.042 6.838.062 20.141.062zm58.058 20.39c-4.324 0-8.273-1.06-11.848-3.18a24.031 24.031 0 01-8.543-8.543c-2.121-3.575-3.181-7.524-3.181-11.848 0-4.365 1.06-8.314 3.181-11.848 2.12-3.575 4.968-6.402 8.543-8.48C190.439 2.06 194.388 1 198.712 1c4.365 0 8.273 1.06 11.723 3.18 3.451 2.079 6.174 4.906 8.169 8.481 2.037 3.534 3.056 7.483 3.056 11.848 0 4.324-1.019 8.273-3.056 11.848-1.995 3.575-4.718 6.423-8.169 8.543-3.45 2.12-7.358 3.18-11.723 3.18zm0-3.741c3.617 0 6.838-.894 9.665-2.681 2.869-1.83 5.134-4.24 6.797-7.234 1.663-3.035 2.495-6.34 2.495-9.915 0-3.617-.832-6.922-2.495-9.915-1.663-3.035-3.928-5.446-6.797-7.233-2.827-1.788-6.048-2.682-9.665-2.682-5.405 0-10.019 1.954-13.844 5.862-3.824 3.866-5.737 8.522-5.737 13.968 0 3.575.873 6.88 2.619 9.915a21.147 21.147 0 007.109 7.234c2.993 1.787 6.278 2.681 9.853 2.681zM228.919 56c-.582 0-1.061-.187-1.435-.561-.332-.333-.499-.77-.499-1.31V19.333c0-.54.167-.997.499-1.371.374-.375.853-.562 1.435-.562.582 0 1.06.187 1.434.562.374.374.561.83.561 1.371v1.809c0 .374.125.56.374.56.166 0 .312-.082.437-.249 1.247-1.538 2.847-2.723 4.801-3.554a16.058 16.058 0 016.236-1.247c4.365 0 8.086 1.538 11.162 4.614 3.077 3.077 4.615 6.798 4.615 11.163s-1.559 8.065-4.677 11.1c-3.118 3.034-6.86 4.551-11.225 4.551-4.406 0-8.127-1.662-11.162-4.988-.041-.083-.104-.125-.187-.125h-.062c-.208 0-.312.166-.312.499v10.663c0 .54-.187.977-.561 1.31-.374.374-.852.561-1.434.561zm13.718-11.661c3.285 0 6.091-1.164 8.419-3.492 2.328-2.37 3.492-5.176 3.492-8.418 0-3.243-1.164-6.05-3.492-8.419-2.287-2.411-5.051-3.617-8.294-3.617-3.243 0-6.028 1.206-8.356 3.617-2.286 2.37-3.43 5.176-3.43 8.419 0 3.242 1.123 6.048 3.368 8.418 2.286 2.328 5.051 3.492 8.293 3.492zm27.493 2.931c-.582 0-1.06-.187-1.434-.561a1.866 1.866 0 01-.561-1.372V22.139c0-.498-.229-.748-.686-.748h-2.993c-.541 0-.998-.187-1.372-.561-.374-.374-.561-.852-.561-1.434s.187-1.06.561-1.434a1.865 1.865 0 011.372-.562h2.931c.499 0 .748-.332.748-.997V3.68c0-.54.187-.997.561-1.371.374-.375.852-.562 1.434-.562.583 0 1.061.187 1.435.562.374.374.561.831.561 1.371v12.91c0 .498.249.769.748.81h2.931c.541 0 .998.187 1.372.562.374.374.561.852.561 1.434s-.187 1.06-.561 1.434a1.865 1.865 0 01-1.372.561h-2.058c-.831 0-1.309.042-1.434.125-.125.083-.187.27-.187.561v23.26c0 .54-.187.997-.561 1.372-.374.374-.852.56-1.435.56zm14.693 0c-.582 0-1.06-.187-1.434-.561a1.866 1.866 0 01-.561-1.372V19.27c0-.54.187-.998.561-1.372.374-.374.852-.561 1.434-.561s1.06.187 1.434.561c.375.374.562.831.562 1.372v26.066c0 .54-.187.997-.562 1.372-.374.374-.852.56-1.434.56zm23.014.81c-4.365 0-8.086-1.538-11.162-4.614-3.035-3.118-4.552-6.839-4.552-11.162 0-4.324 1.517-8.003 4.552-11.038 3.076-3.076 6.797-4.614 11.162-4.614 3.742 0 7.068 1.164 9.978 3.492.332.208.498.624.498 1.247v3.43c0 .582-.124.873-.374.873-.208 0-.54-.25-.997-.748a13.019 13.019 0 00-4.054-3.305c-1.538-.832-3.222-1.248-5.051-1.248-3.242 0-6.007 1.185-8.293 3.555-2.287 2.328-3.43 5.113-3.43 8.356 0 3.242 1.143 6.07 3.43 8.48 2.286 2.37 5.051 3.555 8.293 3.555 1.954 0 3.742-.478 5.363-1.434a12.7 12.7 0 004.116-3.742c.249-.332.478-.499.686-.499a.48.48 0 01.187.063c.083.041.124.25.124.623v3.867c0 .623-.187 1.06-.561 1.31-2.868 2.369-6.173 3.553-9.915 3.553z" fill="#4F5250"/><path d="M37.854 47.208c-.79 0-1.393-.375-1.809-1.123l-4.801-11.474c-.25-.54-.748-.81-1.497-.81H11.102c-.748 0-1.247.332-1.497.997L4.866 46.085c-.416.748-1.018 1.123-1.808 1.123-.25 0-.52-.063-.81-.188C1.415 46.688 1 46.106 1 45.274c0-.25.042-.498.125-.748l17.46-41.593c.333-.79.956-1.185 1.87-1.185.832 0 1.456.395 1.872 1.185l17.46 41.593c.125.25.187.499.187.748 0 .832-.437 1.414-1.31 1.746a2.07 2.07 0 01-.81.188zm-9.728-17.46c.582 0 .873-.146.873-.437 0-.125-.063-.312-.187-.562-.125-.29-.645-1.538-1.56-3.741-.914-2.203-1.932-4.635-3.055-7.296l-3.18-7.732c-.166-.54-.353-.811-.561-.811-.416 0-3.035 6.111-7.857 18.333a76.7 76.7 0 00-.562 1.497.553.553 0 00-.062.25c0 .332.27.498.81.498h15.34zM59.273 48.08c-4.157 0-7.816-1.766-10.975-5.3-.042-.083-.104-.125-.187-.125h-.125c-.083 0-.125.125-.125.374v2.37c0 .54-.187.998-.561 1.372-.374.333-.831.499-1.372.499-.665 0-1.185-.166-1.559-.499a1.866 1.866 0 01-.561-1.372V3.62c0-.499.187-.935.561-1.31.374-.374.81-.56 1.31-.56.706 0 1.247.186 1.621.56.374.375.561.811.561 1.31v17.897c0 .25.125.374.374.374.125 0 .23-.062.312-.187 2.827-3.367 6.402-5.051 10.726-5.051 4.323 0 8.023 1.517 11.1 4.552 3.076 3.035 4.614 6.735 4.614 11.1 0 4.365-1.538 8.086-4.614 11.162-3.077 3.076-6.777 4.614-11.1 4.614zm0-3.741c3.242 0 6.007-1.185 8.294-3.554 2.286-2.412 3.43-5.238 3.43-8.481 0-3.243-1.144-6.028-3.43-8.356-2.287-2.37-5.051-3.555-8.294-3.555-3.243 0-6.007 1.185-8.294 3.555-2.286 2.328-3.43 5.113-3.43 8.356 0 3.242 1.144 6.07 3.43 8.48 2.287 2.37 5.051 3.555 8.294 3.555zm36.294 3.741c-4.157 0-7.815-1.766-10.975-5.3-.041-.083-.104-.125-.187-.125h-.125c-.083 0-.124.125-.124.374v2.37c0 .54-.187.998-.562 1.372-.374.333-.83.499-1.371.499-.665 0-1.185-.166-1.56-.499a1.866 1.866 0 01-.56-1.372V3.62c0-.499.187-.935.56-1.31.375-.374.811-.56 1.31-.56.707 0 1.247.186 1.621.56.375.375.562.811.562 1.31v17.897c0 .25.124.374.374.374.125 0 .228-.062.312-.187 2.827-3.367 6.402-5.051 10.725-5.051 4.324 0 8.024 1.517 11.1 4.552 3.076 3.035 4.615 6.735 4.615 11.1 0 4.365-1.539 8.086-4.615 11.162-3.076 3.076-6.776 4.614-11.1 4.614zm0-3.741c3.243 0 6.007-1.185 8.294-3.554 2.286-2.412 3.43-5.238 3.43-8.481 0-3.243-1.144-6.028-3.43-8.356-2.287-2.37-5.051-3.555-8.294-3.555-3.242 0-6.007 1.185-8.293 3.555-2.287 2.328-3.43 5.113-3.43 8.356 0 3.242 1.143 6.07 3.43 8.48 2.286 2.37 5.05 3.555 8.293 3.555zm35.484 3.741c-4.365 0-8.086-1.538-11.162-4.614-3.076-3.076-4.615-6.797-4.615-11.162 0-4.365 1.539-8.065 4.615-11.1 3.076-3.035 6.797-4.552 11.162-4.552 4.365 0 8.086 1.517 11.162 4.552 2.204 2.203 3.513 4.864 3.929 7.982l.062.436c0 .375-.104.811-.312 1.31-.207.499-.748.748-1.621.748h-23.883c-.416 0-.686.083-.811.25-.125.124-.187.332-.187.623v.312c.25 3.118 1.393 5.675 3.43 7.67 2.536 2.536 5.279 3.804 8.231 3.804 1.58 0 3.097-.333 4.552-.998 1.497-.706 2.619-1.517 3.368-2.432.997-1.247 1.829-1.87 2.494-1.87.374 0 .79.124 1.247.374.582.457.873.997.873 1.621 0 .54-.208 1.06-.623 1.559-3.118 3.658-7.089 5.487-11.911 5.487zm9.603-20.39c.624 0 .936-.125.936-.375 0-.208-.125-.457-.375-.748v-.063c-.415-.83-1.06-1.642-1.933-2.431-2.286-2.453-5.03-3.68-8.231-3.68-3.243 0-6.007 1.227-8.294 3.68-.956.997-1.683 1.912-2.182 2.743-.125.25-.187.437-.187.562 0 .083.041.166.125.249.124.042 6.838.062 20.141.062zm58.058 20.39c-4.324 0-8.273-1.06-11.848-3.18a24.031 24.031 0 01-8.543-8.543c-2.121-3.575-3.181-7.524-3.181-11.848 0-4.365 1.06-8.314 3.181-11.848 2.12-3.575 4.968-6.402 8.543-8.48C190.439 2.06 194.388 1 198.712 1c4.365 0 8.273 1.06 11.723 3.18 3.451 2.079 6.174 4.906 8.169 8.481 2.037 3.534 3.056 7.483 3.056 11.848 0 4.324-1.019 8.273-3.056 11.848-1.995 3.575-4.718 6.423-8.169 8.543-3.45 2.12-7.358 3.18-11.723 3.18zm0-3.741c3.617 0 6.838-.894 9.665-2.681 2.869-1.83 5.134-4.24 6.797-7.234 1.663-3.035 2.495-6.34 2.495-9.915 0-3.617-.832-6.922-2.495-9.915-1.663-3.035-3.928-5.446-6.797-7.233-2.827-1.788-6.048-2.682-9.665-2.682-5.405 0-10.019 1.954-13.844 5.862-3.824 3.866-5.737 8.522-5.737 13.968 0 3.575.873 6.88 2.619 9.915a21.147 21.147 0 007.109 7.234c2.993 1.787 6.278 2.681 9.853 2.681zM228.919 56c-.582 0-1.061-.187-1.435-.561-.332-.333-.499-.77-.499-1.31V19.333c0-.54.167-.997.499-1.371.374-.375.853-.562 1.435-.562.582 0 1.06.187 1.434.562.374.374.561.83.561 1.371v1.809c0 .374.125.56.374.56.166 0 .312-.082.437-.249 1.247-1.538 2.847-2.723 4.801-3.554a16.058 16.058 0 016.236-1.247c4.365 0 8.086 1.538 11.162 4.614 3.077 3.077 4.615 6.798 4.615 11.163s-1.559 8.065-4.677 11.1c-3.118 3.034-6.86 4.551-11.225 4.551-4.406 0-8.127-1.662-11.162-4.988-.041-.083-.104-.125-.187-.125h-.062c-.208 0-.312.166-.312.499v10.663c0 .54-.187.977-.561 1.31-.374.374-.852.561-1.434.561zm13.718-11.661c3.285 0 6.091-1.164 8.419-3.492 2.328-2.37 3.492-5.176 3.492-8.418 0-3.243-1.164-6.05-3.492-8.419-2.287-2.411-5.051-3.617-8.294-3.617-3.243 0-6.028 1.206-8.356 3.617-2.286 2.37-3.43 5.176-3.43 8.419 0 3.242 1.123 6.048 3.368 8.418 2.286 2.328 5.051 3.492 8.293 3.492zm27.493 2.931c-.582 0-1.06-.187-1.434-.561a1.866 1.866 0 01-.561-1.372V22.139c0-.498-.229-.748-.686-.748h-2.993c-.541 0-.998-.187-1.372-.561-.374-.374-.561-.852-.561-1.434s.187-1.06.561-1.434a1.865 1.865 0 011.372-.562h2.931c.499 0 .748-.332.748-.997V3.68c0-.54.187-.997.561-1.371.374-.375.852-.562 1.434-.562.583 0 1.061.187 1.435.562.374.374.561.831.561 1.371v12.91c0 .498.249.769.748.81h2.931c.541 0 .998.187 1.372.562.374.374.561.852.561 1.434s-.187 1.06-.561 1.434a1.865 1.865 0 01-1.372.561h-2.058c-.831 0-1.309.042-1.434.125-.125.083-.187.27-.187.561v23.26c0 .54-.187.997-.561 1.372-.374.374-.852.56-1.435.56zm14.693 0c-.582 0-1.06-.187-1.434-.561a1.866 1.866 0 01-.561-1.372V19.27c0-.54.187-.998.561-1.372.374-.374.852-.561 1.434-.561s1.06.187 1.434.561c.375.374.562.831.562 1.372v26.066c0 .54-.187.997-.562 1.372-.374.374-.852.56-1.434.56zm23.014.81c-4.365 0-8.086-1.538-11.162-4.614-3.035-3.118-4.552-6.839-4.552-11.162 0-4.324 1.517-8.003 4.552-11.038 3.076-3.076 6.797-4.614 11.162-4.614 3.742 0 7.068 1.164 9.978 3.492.332.208.498.624.498 1.247v3.43c0 .582-.124.873-.374.873-.208 0-.54-.25-.997-.748a13.019 13.019 0 00-4.054-3.305c-1.538-.832-3.222-1.248-5.051-1.248-3.242 0-6.007 1.185-8.293 3.555-2.287 2.328-3.43 5.113-3.43 8.356 0 3.242 1.143 6.07 3.43 8.48 2.286 2.37 5.051 3.555 8.293 3.555 1.954 0 3.742-.478 5.363-1.434a12.7 12.7 0 004.116-3.742c.249-.332.478-.499.686-.499a.48.48 0 01.187.063c.083.041.124.25.124.623v3.867c0 .623-.187 1.06-.561 1.31-2.868 2.369-6.173 3.553-9.915 3.553z" stroke="#4F5250" mask="url(#path-1-outside-1)"/></svg>