<svg width="30" height="30" fill="none" xmlns="http://www.w3.org/2000/svg"><path d="M9.525 3.895c-1.704 0-3.043.973-3.043 2.19s1.34 2.19 3.043 2.19c1.704 0 3.043-.973 3.043-2.19s-1.34-2.19-3.043-2.19zm0 3.164c-1.034 0-1.826-.548-1.826-.974 0-.487.792-.973 1.826-.973s1.826.547 1.826.973c0 .487-.792.974-1.826.974z" fill="#4F5250"/><path d="M26.439 10.953h-7.911V6.085C18.528 2.738 14.512 0 9.522 0S.516 2.738.516 6.085V18.5c0 2.738 2.738 5.172 6.632 5.903v4.99c0 .365.244.608.609.608h18.681a3.013 3.013 0 003.043-3.043V13.996a3.013 3.013 0 00-3.043-3.043zM9.521 1.217c4.32 0 7.789 2.19 7.789 4.868 0 2.678-3.469 4.868-7.79 4.868-4.32 0-7.788-2.19-7.788-4.868 0-2.677 3.468-4.868 7.789-4.868zm7.789 7.91v1.826h-2.434c.973-.486 1.825-1.095 2.434-1.825zM7.148 16.43v6.694c-3.164-.67-5.415-2.495-5.415-4.625V9.128c1.582 1.825 4.442 3.042 7.789 3.042h16.916c1.035 0 1.826.791 1.826 1.826a1.793 1.793 0 01-1.825 1.825H7.757c-.365 0-.609.244-.609.609zm21.238 10.467h-.122a1.793 1.793 0 01-1.825 1.825h-.73v-2.8c0-.364-.244-.608-.61-.608-.364 0-.608.244-.608.609v2.8H22.24v-2.8c0-.365-.244-.609-.609-.609s-.608.244-.608.609v2.8H18.77v-2.8c0-.365-.243-.609-.608-.609s-.609.244-.609.609v2.8h-2.251v-2.8c0-.365-.244-.609-.609-.609s-.608.244-.608.609v2.8h-2.252v-2.8c0-.365-.243-.609-.608-.609-.366 0-.609.244-.609.609v2.8h-2.13v-4.686c0-.061.061-.122.061-.122 0-.122 0-.183-.06-.305v-6.572H26.56a3.13 3.13 0 001.826-.608v10.467z" fill="#4F5250"/></svg>