<svg width="24" height="24" fill="none" xmlns="http://www.w3.org/2000/svg"><g clip-path="url(#clip0)" fill="#fff"><path d="M14.896 1.529h-1.492v.805c0 .379-.29.704-.668.722a.703.703 0 01-.738-.702V1.53H8.502v.805c0 .379-.29.704-.668.722a.703.703 0 01-.738-.702V1.53H3.6v.805a.716.716 0 01-.67.722.703.703 0 01-.736-.702V1.53H.704A.705.705 0 000 2.232V5.34h15.599V2.232a.705.705 0 00-.704-.703zM0 23.297c0 .387.316.703.703.703h14.193a.705.705 0 00.703-.703V6.747H0v16.55zm3.319-13.72h8.96a.703.703 0 010 1.406H3.32a.703.703 0 010-1.406zm0 3.396h8.96a.703.703 0 110 1.406H3.32a.703.703 0 010-1.406zm0 3.395h8.96a.703.703 0 010 1.406H3.32a.703.703 0 110-1.406zm0 3.395h8.96a.703.703 0 010 1.407H3.32a.703.703 0 010-1.407zM3.6.703a.703.703 0 00-1.406 0v.826H3.6V.703zm9.804 0a.703.703 0 10-1.406 0v.826h1.406V.703zm-4.902 0a.703.703 0 10-1.406 0v.826h1.406V.703zM20.299 3.94H24v14.78h-3.7V3.94zm1.633 19.912c.08.195.355.195.434 0L24 20.127h-3.7l1.633 3.725zM23.297 0h-2.295a.703.703 0 00-.703.703v1.831H24V.704A.703.703 0 0023.297 0z"/></g><defs><clipPath id="clip0"><path fill="#fff" d="M0 0h24v24H0z"/></clipPath></defs></svg>