<svg width="30" height="30" fill="none" xmlns="http://www.w3.org/2000/svg"><g clip-path="url(#clip0)"><path d="M29.605.147a.5.5 0 00-.707 0L27.044 2H15.402L.767 16.756a1.753 1.753 0 00-.517 1.248c0 .47.184.914.517 1.247L11 29.485a1.77 1.77 0 002.5-.005l14.25-14.636V2.707L29.606.854a.5.5 0 000-.707zm-2.854 14.29l-13.963 14.34a.765.765 0 01-1.081 0L1.474 18.545a.766.766 0 01.001-1.082L15.819 3h10.225l-2.417 2.417A2.485 2.485 0 0022.251 5a2.503 2.503 0 00-2.5 2.5c0 1.379 1.121 2.5 2.5 2.5 1.378 0 2.5-1.121 2.5-2.5 0-.508-.155-.98-.417-1.376l2.417-2.417v10.73zm-3-6.937c0 .827-.673 1.5-1.5 1.5s-1.5-.673-1.5-1.5.673-1.5 1.5-1.5c.23 0 .447.057.642.15l-.996.997a.5.5 0 10.707.707l.996-.996c.094.195.15.411.15.642z" fill="#4F5250"/></g><defs><clipPath id="clip0"><path fill="#fff" d="M0 0h30v30H0z"/></clipPath></defs></svg>