<svg width="22" height="22" fill="none" xmlns="http://www.w3.org/2000/svg"><path d="M19.8 19.017L18.54 4.832a.606.606 0 00-.603-.553h-2.591A4.35 4.35 0 0011 0a4.35 4.35 0 00-4.346 4.279H4.063a.603.603 0 00-.603.553L2.2 19.017c0 .018-.005.036-.005.054 0 1.615 1.48 2.929 3.303 2.929h11.004c1.822 0 3.302-1.314 3.302-2.929 0-.018 0-.036-.004-.054zM11 1.215a3.135 3.135 0 013.131 3.064H7.87A3.135 3.135 0 0111 1.215zm5.502 19.57H5.498c-1.143 0-2.07-.756-2.088-1.687l1.206-13.6h2.033v1.844c0 .338.27.608.608.608.337 0 .607-.27.607-.608V5.498h6.267v1.844c0 .338.27.608.608.608.337 0 .607-.27.607-.608V5.498h2.034l1.21 13.6c-.018.931-.95 1.687-2.088 1.687z" fill="#4F5250"/></svg>