<svg width="0" height="0" class="hidden"><symbol fill="none" xmlns="http://www.w3.org/2000/svg" viewBox="0 0 319 57" id="logo"><mask id="a" maskUnits="userSpaceOnUse" x="0" y="0" width="319" height="57" fill="#000"><path fill="#fff" d="M0 0h319v57H0z"/><path d="M37.854 47.208c-.79 0-1.393-.375-1.809-1.123l-4.801-11.474c-.25-.54-.748-.81-1.497-.81H11.102c-.748 0-1.247.332-1.497.997L4.866 46.085c-.416.748-1.018 1.123-1.808 1.123-.25 0-.52-.063-.81-.188C1.415 46.688 1 46.106 1 45.274c0-.25.042-.498.125-.748l17.46-41.593c.333-.79.956-1.185 1.87-1.185.832 0 1.456.395 1.872 1.185l17.46 41.593c.125.25.187.499.187.748 0 .832-.437 1.414-1.31 1.746a2.07 2.07 0 01-.81.188zm-9.728-17.46c.582 0 .873-.146.873-.437 0-.125-.063-.312-.187-.562-.125-.29-.645-1.538-1.56-3.741-.914-2.203-1.932-4.635-3.055-7.296l-3.18-7.732c-.166-.54-.353-.811-.561-.811-.416 0-3.035 6.111-7.857 18.333a76.7 76.7 0 00-.562 1.497.553.553 0 00-.062.25c0 .332.27.498.81.498h15.34zM59.273 48.08c-4.157 0-7.816-1.766-10.975-5.3-.042-.083-.104-.125-.187-.125h-.125c-.083 0-.125.125-.125.374v2.37c0 .54-.187.998-.561 1.372-.374.333-.831.499-1.372.499-.665 0-1.185-.166-1.559-.499a1.866 1.866 0 01-.561-1.372V3.62c0-.499.187-.935.561-1.31.374-.374.81-.56 1.31-.56.706 0 1.247.186 1.621.56.374.375.561.811.561 1.31v17.897c0 .25.125.374.374.374.125 0 .23-.062.312-.187 2.827-3.367 6.402-5.051 10.726-5.051 4.323 0 8.023 1.517 11.1 4.552 3.076 3.035 4.614 6.735 4.614 11.1 0 4.365-1.538 8.086-4.614 11.162-3.077 3.076-6.777 4.614-11.1 4.614zm0-3.741c3.242 0 6.007-1.185 8.294-3.554 2.286-2.412 3.43-5.238 3.43-8.481 0-3.243-1.144-6.028-3.43-8.356-2.287-2.37-5.051-3.555-8.294-3.555-3.243 0-6.007 1.185-8.294 3.555-2.286 2.328-3.43 5.113-3.43 8.356 0 3.242 1.144 6.07 3.43 8.48 2.287 2.37 5.051 3.555 8.294 3.555zm36.294 3.741c-4.157 0-7.815-1.766-10.975-5.3-.041-.083-.104-.125-.187-.125h-.125c-.083 0-.124.125-.124.374v2.37c0 .54-.187.998-.562 1.372-.374.333-.83.499-1.371.499-.665 0-1.185-.166-1.56-.499a1.866 1.866 0 01-.56-1.372V3.62c0-.499.187-.935.56-1.31.375-.374.811-.56 1.31-.56.707 0 1.247.186 1.621.56.375.375.562.811.562 1.31v17.897c0 .25.124.374.374.374.125 0 .228-.062.312-.187 2.827-3.367 6.402-5.051 10.725-5.051 4.324 0 8.024 1.517 11.1 4.552 3.076 3.035 4.615 6.735 4.615 11.1 0 4.365-1.539 8.086-4.615 11.162-3.076 3.076-6.776 4.614-11.1 4.614zm0-3.741c3.243 0 6.007-1.185 8.294-3.554 2.286-2.412 3.43-5.238 3.43-8.481 0-3.243-1.144-6.028-3.43-8.356-2.287-2.37-5.051-3.555-8.294-3.555-3.242 0-6.007 1.185-8.293 3.555-2.287 2.328-3.43 5.113-3.43 8.356 0 3.242 1.143 6.07 3.43 8.48 2.286 2.37 5.05 3.555 8.293 3.555zm35.484 3.741c-4.365 0-8.086-1.538-11.162-4.614-3.076-3.076-4.615-6.797-4.615-11.162 0-4.365 1.539-8.065 4.615-11.1 3.076-3.035 6.797-4.552 11.162-4.552 4.365 0 8.086 1.517 11.162 4.552 2.204 2.203 3.513 4.864 3.929 7.982l.062.436c0 .375-.104.811-.312 1.31-.207.499-.748.748-1.621.748h-23.883c-.416 0-.686.083-.811.25-.125.124-.187.332-.187.623v.312c.25 3.118 1.393 5.675 3.43 7.67 2.536 2.536 5.279 3.804 8.231 3.804 1.58 0 3.097-.333 4.552-.998 1.497-.706 2.619-1.517 3.368-2.432.997-1.247 1.829-1.87 2.494-1.87.374 0 .79.124 1.247.374.582.457.873.997.873 1.621 0 .54-.208 1.06-.623 1.559-3.118 3.658-7.089 5.487-11.911 5.487zm9.603-20.39c.624 0 .936-.125.936-.375 0-.208-.125-.457-.375-.748v-.063c-.415-.83-1.06-1.642-1.933-2.431-2.286-2.453-5.03-3.68-8.231-3.68-3.243 0-6.007 1.227-8.294 3.68-.956.997-1.683 1.912-2.182 2.743-.125.25-.187.437-.187.562 0 .083.041.166.125.249.124.042 6.838.062 20.141.062zm58.058 20.39c-4.324 0-8.273-1.06-11.848-3.18a24.031 24.031 0 01-8.543-8.543c-2.121-3.575-3.181-7.524-3.181-11.848 0-4.365 1.06-8.314 3.181-11.848 2.12-3.575 4.968-6.402 8.543-8.48C190.439 2.06 194.388 1 198.712 1c4.365 0 8.273 1.06 11.723 3.18 3.451 2.079 6.174 4.906 8.169 8.481 2.037 3.534 3.056 7.483 3.056 11.848 0 4.324-1.019 8.273-3.056 11.848-1.995 3.575-4.718 6.423-8.169 8.543-3.45 2.12-7.358 3.18-11.723 3.18zm0-3.741c3.617 0 6.838-.894 9.665-2.681 2.869-1.83 5.134-4.24 6.797-7.234 1.663-3.035 2.495-6.34 2.495-9.915 0-3.617-.832-6.922-2.495-9.915-1.663-3.035-3.928-5.446-6.797-7.233-2.827-1.788-6.048-2.682-9.665-2.682-5.405 0-10.019 1.954-13.844 5.862-3.824 3.866-5.737 8.522-5.737 13.968 0 3.575.873 6.88 2.619 9.915a21.147 21.147 0 007.109 7.234c2.993 1.787 6.278 2.681 9.853 2.681zM228.919 56c-.582 0-1.061-.187-1.435-.561-.332-.333-.499-.77-.499-1.31V19.333c0-.54.167-.997.499-1.371.374-.375.853-.562 1.435-.562.582 0 1.06.187 1.434.562.374.374.561.83.561 1.371v1.809c0 .374.125.56.374.56.166 0 .312-.082.437-.249 1.247-1.538 2.847-2.723 4.801-3.554a16.058 16.058 0 016.236-1.247c4.365 0 8.086 1.538 11.162 4.614 3.077 3.077 4.615 6.798 4.615 11.163s-1.559 8.065-4.677 11.1c-3.118 3.034-6.86 4.551-11.225 4.551-4.406 0-8.127-1.662-11.162-4.988-.041-.083-.104-.125-.187-.125h-.062c-.208 0-.312.166-.312.499v10.663c0 .54-.187.977-.561 1.31-.374.374-.852.561-1.434.561zm13.718-11.661c3.285 0 6.091-1.164 8.419-3.492 2.328-2.37 3.492-5.176 3.492-8.418 0-3.243-1.164-6.05-3.492-8.419-2.287-2.411-5.051-3.617-8.294-3.617-3.243 0-6.028 1.206-8.356 3.617-2.286 2.37-3.43 5.176-3.43 8.419 0 3.242 1.123 6.048 3.368 8.418 2.286 2.328 5.051 3.492 8.293 3.492zm27.493 2.931c-.582 0-1.06-.187-1.434-.561a1.866 1.866 0 01-.561-1.372V22.139c0-.498-.229-.748-.686-.748h-2.993c-.541 0-.998-.187-1.372-.561-.374-.374-.561-.852-.561-1.434s.187-1.06.561-1.434a1.865 1.865 0 011.372-.562h2.931c.499 0 .748-.332.748-.997V3.68c0-.54.187-.997.561-1.371.374-.375.852-.562 1.434-.562.583 0 1.061.187 1.435.562.374.374.561.831.561 1.371v12.91c0 .498.249.769.748.81h2.931c.541 0 .998.187 1.372.562.374.374.561.852.561 1.434s-.187 1.06-.561 1.434a1.865 1.865 0 01-1.372.561h-2.058c-.831 0-1.309.042-1.434.125-.125.083-.187.27-.187.561v23.26c0 .54-.187.997-.561 1.372-.374.374-.852.56-1.435.56zm14.693 0c-.582 0-1.06-.187-1.434-.561a1.866 1.866 0 01-.561-1.372V19.27c0-.54.187-.998.561-1.372.374-.374.852-.561 1.434-.561s1.06.187 1.434.561c.375.374.562.831.562 1.372v26.066c0 .54-.187.997-.562 1.372-.374.374-.852.56-1.434.56zm23.014.81c-4.365 0-8.086-1.538-11.162-4.614-3.035-3.118-4.552-6.839-4.552-11.162 0-4.324 1.517-8.003 4.552-11.038 3.076-3.076 6.797-4.614 11.162-4.614 3.742 0 7.068 1.164 9.978 3.492.332.208.498.624.498 1.247v3.43c0 .582-.124.873-.374.873-.208 0-.54-.25-.997-.748a13.019 13.019 0 00-4.054-3.305c-1.538-.832-3.222-1.248-5.051-1.248-3.242 0-6.007 1.185-8.293 3.555-2.287 2.328-3.43 5.113-3.43 8.356 0 3.242 1.143 6.07 3.43 8.48 2.286 2.37 5.051 3.555 8.293 3.555 1.954 0 3.742-.478 5.363-1.434a12.7 12.7 0 004.116-3.742c.249-.332.478-.499.686-.499a.48.48 0 01.187.063c.083.041.124.25.124.623v3.867c0 .623-.187 1.06-.561 1.31-2.868 2.369-6.173 3.553-9.915 3.553z"/></mask><path d="M37.854 47.208c-.79 0-1.393-.375-1.809-1.123l-4.801-11.474c-.25-.54-.748-.81-1.497-.81H11.102c-.748 0-1.247.332-1.497.997L4.866 46.085c-.416.748-1.018 1.123-1.808 1.123-.25 0-.52-.063-.81-.188C1.415 46.688 1 46.106 1 45.274c0-.25.042-.498.125-.748l17.46-41.593c.333-.79.956-1.185 1.87-1.185.832 0 1.456.395 1.872 1.185l17.46 41.593c.125.25.187.499.187.748 0 .832-.437 1.414-1.31 1.746a2.07 2.07 0 01-.81.188zm-9.728-17.46c.582 0 .873-.146.873-.437 0-.125-.063-.312-.187-.562-.125-.29-.645-1.538-1.56-3.741-.914-2.203-1.932-4.635-3.055-7.296l-3.18-7.732c-.166-.54-.353-.811-.561-.811-.416 0-3.035 6.111-7.857 18.333a76.7 76.7 0 00-.562 1.497.553.553 0 00-.062.25c0 .332.27.498.81.498h15.34zM59.273 48.08c-4.157 0-7.816-1.766-10.975-5.3-.042-.083-.104-.125-.187-.125h-.125c-.083 0-.125.125-.125.374v2.37c0 .54-.187.998-.561 1.372-.374.333-.831.499-1.372.499-.665 0-1.185-.166-1.559-.499a1.866 1.866 0 01-.561-1.372V3.62c0-.499.187-.935.561-1.31.374-.374.81-.56 1.31-.56.706 0 1.247.186 1.621.56.374.375.561.811.561 1.31v17.897c0 .25.125.374.374.374.125 0 .23-.062.312-.187 2.827-3.367 6.402-5.051 10.726-5.051 4.323 0 8.023 1.517 11.1 4.552 3.076 3.035 4.614 6.735 4.614 11.1 0 4.365-1.538 8.086-4.614 11.162-3.077 3.076-6.777 4.614-11.1 4.614zm0-3.741c3.242 0 6.007-1.185 8.294-3.554 2.286-2.412 3.43-5.238 3.43-8.481 0-3.243-1.144-6.028-3.43-8.356-2.287-2.37-5.051-3.555-8.294-3.555-3.243 0-6.007 1.185-8.294 3.555-2.286 2.328-3.43 5.113-3.43 8.356 0 3.242 1.144 6.07 3.43 8.48 2.287 2.37 5.051 3.555 8.294 3.555zm36.294 3.741c-4.157 0-7.815-1.766-10.975-5.3-.041-.083-.104-.125-.187-.125h-.125c-.083 0-.124.125-.124.374v2.37c0 .54-.187.998-.562 1.372-.374.333-.83.499-1.371.499-.665 0-1.185-.166-1.56-.499a1.866 1.866 0 01-.56-1.372V3.62c0-.499.187-.935.56-1.31.375-.374.811-.56 1.31-.56.707 0 1.247.186 1.621.56.375.375.562.811.562 1.31v17.897c0 .25.124.374.374.374.125 0 .228-.062.312-.187 2.827-3.367 6.402-5.051 10.725-5.051 4.324 0 8.024 1.517 11.1 4.552 3.076 3.035 4.615 6.735 4.615 11.1 0 4.365-1.539 8.086-4.615 11.162-3.076 3.076-6.776 4.614-11.1 4.614zm0-3.741c3.243 0 6.007-1.185 8.294-3.554 2.286-2.412 3.43-5.238 3.43-8.481 0-3.243-1.144-6.028-3.43-8.356-2.287-2.37-5.051-3.555-8.294-3.555-3.242 0-6.007 1.185-8.293 3.555-2.287 2.328-3.43 5.113-3.43 8.356 0 3.242 1.143 6.07 3.43 8.48 2.286 2.37 5.05 3.555 8.293 3.555zm35.484 3.741c-4.365 0-8.086-1.538-11.162-4.614-3.076-3.076-4.615-6.797-4.615-11.162 0-4.365 1.539-8.065 4.615-11.1 3.076-3.035 6.797-4.552 11.162-4.552 4.365 0 8.086 1.517 11.162 4.552 2.204 2.203 3.513 4.864 3.929 7.982l.062.436c0 .375-.104.811-.312 1.31-.207.499-.748.748-1.621.748h-23.883c-.416 0-.686.083-.811.25-.125.124-.187.332-.187.623v.312c.25 3.118 1.393 5.675 3.43 7.67 2.536 2.536 5.279 3.804 8.231 3.804 1.58 0 3.097-.333 4.552-.998 1.497-.706 2.619-1.517 3.368-2.432.997-1.247 1.829-1.87 2.494-1.87.374 0 .79.124 1.247.374.582.457.873.997.873 1.621 0 .54-.208 1.06-.623 1.559-3.118 3.658-7.089 5.487-11.911 5.487zm9.603-20.39c.624 0 .936-.125.936-.375 0-.208-.125-.457-.375-.748v-.063c-.415-.83-1.06-1.642-1.933-2.431-2.286-2.453-5.03-3.68-8.231-3.68-3.243 0-6.007 1.227-8.294 3.68-.956.997-1.683 1.912-2.182 2.743-.125.25-.187.437-.187.562 0 .083.041.166.125.249.124.042 6.838.062 20.141.062zm58.058 20.39c-4.324 0-8.273-1.06-11.848-3.18a24.031 24.031 0 01-8.543-8.543c-2.121-3.575-3.181-7.524-3.181-11.848 0-4.365 1.06-8.314 3.181-11.848 2.12-3.575 4.968-6.402 8.543-8.48C190.439 2.06 194.388 1 198.712 1c4.365 0 8.273 1.06 11.723 3.18 3.451 2.079 6.174 4.906 8.169 8.481 2.037 3.534 3.056 7.483 3.056 11.848 0 4.324-1.019 8.273-3.056 11.848-1.995 3.575-4.718 6.423-8.169 8.543-3.45 2.12-7.358 3.18-11.723 3.18zm0-3.741c3.617 0 6.838-.894 9.665-2.681 2.869-1.83 5.134-4.24 6.797-7.234 1.663-3.035 2.495-6.34 2.495-9.915 0-3.617-.832-6.922-2.495-9.915-1.663-3.035-3.928-5.446-6.797-7.233-2.827-1.788-6.048-2.682-9.665-2.682-5.405 0-10.019 1.954-13.844 5.862-3.824 3.866-5.737 8.522-5.737 13.968 0 3.575.873 6.88 2.619 9.915a21.147 21.147 0 007.109 7.234c2.993 1.787 6.278 2.681 9.853 2.681zM228.919 56c-.582 0-1.061-.187-1.435-.561-.332-.333-.499-.77-.499-1.31V19.333c0-.54.167-.997.499-1.371.374-.375.853-.562 1.435-.562.582 0 1.06.187 1.434.562.374.374.561.83.561 1.371v1.809c0 .374.125.56.374.56.166 0 .312-.082.437-.249 1.247-1.538 2.847-2.723 4.801-3.554a16.058 16.058 0 016.236-1.247c4.365 0 8.086 1.538 11.162 4.614 3.077 3.077 4.615 6.798 4.615 11.163s-1.559 8.065-4.677 11.1c-3.118 3.034-6.86 4.551-11.225 4.551-4.406 0-8.127-1.662-11.162-4.988-.041-.083-.104-.125-.187-.125h-.062c-.208 0-.312.166-.312.499v10.663c0 .54-.187.977-.561 1.31-.374.374-.852.561-1.434.561zm13.718-11.661c3.285 0 6.091-1.164 8.419-3.492 2.328-2.37 3.492-5.176 3.492-8.418 0-3.243-1.164-6.05-3.492-8.419-2.287-2.411-5.051-3.617-8.294-3.617-3.243 0-6.028 1.206-8.356 3.617-2.286 2.37-3.43 5.176-3.43 8.419 0 3.242 1.123 6.048 3.368 8.418 2.286 2.328 5.051 3.492 8.293 3.492zm27.493 2.931c-.582 0-1.06-.187-1.434-.561a1.866 1.866 0 01-.561-1.372V22.139c0-.498-.229-.748-.686-.748h-2.993c-.541 0-.998-.187-1.372-.561-.374-.374-.561-.852-.561-1.434s.187-1.06.561-1.434a1.865 1.865 0 011.372-.562h2.931c.499 0 .748-.332.748-.997V3.68c0-.54.187-.997.561-1.371.374-.375.852-.562 1.434-.562.583 0 1.061.187 1.435.562.374.374.561.831.561 1.371v12.91c0 .498.249.769.748.81h2.931c.541 0 .998.187 1.372.562.374.374.561.852.561 1.434s-.187 1.06-.561 1.434a1.865 1.865 0 01-1.372.561h-2.058c-.831 0-1.309.042-1.434.125-.125.083-.187.27-.187.561v23.26c0 .54-.187.997-.561 1.372-.374.374-.852.56-1.435.56zm14.693 0c-.582 0-1.06-.187-1.434-.561a1.866 1.866 0 01-.561-1.372V19.27c0-.54.187-.998.561-1.372.374-.374.852-.561 1.434-.561s1.06.187 1.434.561c.375.374.562.831.562 1.372v26.066c0 .54-.187.997-.562 1.372-.374.374-.852.56-1.434.56zm23.014.81c-4.365 0-8.086-1.538-11.162-4.614-3.035-3.118-4.552-6.839-4.552-11.162 0-4.324 1.517-8.003 4.552-11.038 3.076-3.076 6.797-4.614 11.162-4.614 3.742 0 7.068 1.164 9.978 3.492.332.208.498.624.498 1.247v3.43c0 .582-.124.873-.374.873-.208 0-.54-.25-.997-.748a13.019 13.019 0 00-4.054-3.305c-1.538-.832-3.222-1.248-5.051-1.248-3.242 0-6.007 1.185-8.293 3.555-2.287 2.328-3.43 5.113-3.43 8.356 0 3.242 1.143 6.07 3.43 8.48 2.286 2.37 5.051 3.555 8.293 3.555 1.954 0 3.742-.478 5.363-1.434a12.7 12.7 0 004.116-3.742c.249-.332.478-.499.686-.499a.48.48 0 01.187.063c.083.041.124.25.124.623v3.867c0 .623-.187 1.06-.561 1.31-2.868 2.369-6.173 3.553-9.915 3.553z" fill="#4F5250"/><path d="M37.854 47.208c-.79 0-1.393-.375-1.809-1.123l-4.801-11.474c-.25-.54-.748-.81-1.497-.81H11.102c-.748 0-1.247.332-1.497.997L4.866 46.085c-.416.748-1.018 1.123-1.808 1.123-.25 0-.52-.063-.81-.188C1.415 46.688 1 46.106 1 45.274c0-.25.042-.498.125-.748l17.46-41.593c.333-.79.956-1.185 1.87-1.185.832 0 1.456.395 1.872 1.185l17.46 41.593c.125.25.187.499.187.748 0 .832-.437 1.414-1.31 1.746a2.07 2.07 0 01-.81.188zm-9.728-17.46c.582 0 .873-.146.873-.437 0-.125-.063-.312-.187-.562-.125-.29-.645-1.538-1.56-3.741-.914-2.203-1.932-4.635-3.055-7.296l-3.18-7.732c-.166-.54-.353-.811-.561-.811-.416 0-3.035 6.111-7.857 18.333a76.7 76.7 0 00-.562 1.497.553.553 0 00-.062.25c0 .332.27.498.81.498h15.34zM59.273 48.08c-4.157 0-7.816-1.766-10.975-5.3-.042-.083-.104-.125-.187-.125h-.125c-.083 0-.125.125-.125.374v2.37c0 .54-.187.998-.561 1.372-.374.333-.831.499-1.372.499-.665 0-1.185-.166-1.559-.499a1.866 1.866 0 01-.561-1.372V3.62c0-.499.187-.935.561-1.31.374-.374.81-.56 1.31-.56.706 0 1.247.186 1.621.56.374.375.561.811.561 1.31v17.897c0 .25.125.374.374.374.125 0 .23-.062.312-.187 2.827-3.367 6.402-5.051 10.726-5.051 4.323 0 8.023 1.517 11.1 4.552 3.076 3.035 4.614 6.735 4.614 11.1 0 4.365-1.538 8.086-4.614 11.162-3.077 3.076-6.777 4.614-11.1 4.614zm0-3.741c3.242 0 6.007-1.185 8.294-3.554 2.286-2.412 3.43-5.238 3.43-8.481 0-3.243-1.144-6.028-3.43-8.356-2.287-2.37-5.051-3.555-8.294-3.555-3.243 0-6.007 1.185-8.294 3.555-2.286 2.328-3.43 5.113-3.43 8.356 0 3.242 1.144 6.07 3.43 8.48 2.287 2.37 5.051 3.555 8.294 3.555zm36.294 3.741c-4.157 0-7.815-1.766-10.975-5.3-.041-.083-.104-.125-.187-.125h-.125c-.083 0-.124.125-.124.374v2.37c0 .54-.187.998-.562 1.372-.374.333-.83.499-1.371.499-.665 0-1.185-.166-1.56-.499a1.866 1.866 0 01-.56-1.372V3.62c0-.499.187-.935.56-1.31.375-.374.811-.56 1.31-.56.707 0 1.247.186 1.621.56.375.375.562.811.562 1.31v17.897c0 .25.124.374.374.374.125 0 .228-.062.312-.187 2.827-3.367 6.402-5.051 10.725-5.051 4.324 0 8.024 1.517 11.1 4.552 3.076 3.035 4.615 6.735 4.615 11.1 0 4.365-1.539 8.086-4.615 11.162-3.076 3.076-6.776 4.614-11.1 4.614zm0-3.741c3.243 0 6.007-1.185 8.294-3.554 2.286-2.412 3.43-5.238 3.43-8.481 0-3.243-1.144-6.028-3.43-8.356-2.287-2.37-5.051-3.555-8.294-3.555-3.242 0-6.007 1.185-8.293 3.555-2.287 2.328-3.43 5.113-3.43 8.356 0 3.242 1.143 6.07 3.43 8.48 2.286 2.37 5.05 3.555 8.293 3.555zm35.484 3.741c-4.365 0-8.086-1.538-11.162-4.614-3.076-3.076-4.615-6.797-4.615-11.162 0-4.365 1.539-8.065 4.615-11.1 3.076-3.035 6.797-4.552 11.162-4.552 4.365 0 8.086 1.517 11.162 4.552 2.204 2.203 3.513 4.864 3.929 7.982l.062.436c0 .375-.104.811-.312 1.31-.207.499-.748.748-1.621.748h-23.883c-.416 0-.686.083-.811.25-.125.124-.187.332-.187.623v.312c.25 3.118 1.393 5.675 3.43 7.67 2.536 2.536 5.279 3.804 8.231 3.804 1.58 0 3.097-.333 4.552-.998 1.497-.706 2.619-1.517 3.368-2.432.997-1.247 1.829-1.87 2.494-1.87.374 0 .79.124 1.247.374.582.457.873.997.873 1.621 0 .54-.208 1.06-.623 1.559-3.118 3.658-7.089 5.487-11.911 5.487zm9.603-20.39c.624 0 .936-.125.936-.375 0-.208-.125-.457-.375-.748v-.063c-.415-.83-1.06-1.642-1.933-2.431-2.286-2.453-5.03-3.68-8.231-3.68-3.243 0-6.007 1.227-8.294 3.68-.956.997-1.683 1.912-2.182 2.743-.125.25-.187.437-.187.562 0 .083.041.166.125.249.124.042 6.838.062 20.141.062zm58.058 20.39c-4.324 0-8.273-1.06-11.848-3.18a24.031 24.031 0 01-8.543-8.543c-2.121-3.575-3.181-7.524-3.181-11.848 0-4.365 1.06-8.314 3.181-11.848 2.12-3.575 4.968-6.402 8.543-8.48C190.439 2.06 194.388 1 198.712 1c4.365 0 8.273 1.06 11.723 3.18 3.451 2.079 6.174 4.906 8.169 8.481 2.037 3.534 3.056 7.483 3.056 11.848 0 4.324-1.019 8.273-3.056 11.848-1.995 3.575-4.718 6.423-8.169 8.543-3.45 2.12-7.358 3.18-11.723 3.18zm0-3.741c3.617 0 6.838-.894 9.665-2.681 2.869-1.83 5.134-4.24 6.797-7.234 1.663-3.035 2.495-6.34 2.495-9.915 0-3.617-.832-6.922-2.495-9.915-1.663-3.035-3.928-5.446-6.797-7.233-2.827-1.788-6.048-2.682-9.665-2.682-5.405 0-10.019 1.954-13.844 5.862-3.824 3.866-5.737 8.522-5.737 13.968 0 3.575.873 6.88 2.619 9.915a21.147 21.147 0 007.109 7.234c2.993 1.787 6.278 2.681 9.853 2.681zM228.919 56c-.582 0-1.061-.187-1.435-.561-.332-.333-.499-.77-.499-1.31V19.333c0-.54.167-.997.499-1.371.374-.375.853-.562 1.435-.562.582 0 1.06.187 1.434.562.374.374.561.83.561 1.371v1.809c0 .374.125.56.374.56.166 0 .312-.082.437-.249 1.247-1.538 2.847-2.723 4.801-3.554a16.058 16.058 0 016.236-1.247c4.365 0 8.086 1.538 11.162 4.614 3.077 3.077 4.615 6.798 4.615 11.163s-1.559 8.065-4.677 11.1c-3.118 3.034-6.86 4.551-11.225 4.551-4.406 0-8.127-1.662-11.162-4.988-.041-.083-.104-.125-.187-.125h-.062c-.208 0-.312.166-.312.499v10.663c0 .54-.187.977-.561 1.31-.374.374-.852.561-1.434.561zm13.718-11.661c3.285 0 6.091-1.164 8.419-3.492 2.328-2.37 3.492-5.176 3.492-8.418 0-3.243-1.164-6.05-3.492-8.419-2.287-2.411-5.051-3.617-8.294-3.617-3.243 0-6.028 1.206-8.356 3.617-2.286 2.37-3.43 5.176-3.43 8.419 0 3.242 1.123 6.048 3.368 8.418 2.286 2.328 5.051 3.492 8.293 3.492zm27.493 2.931c-.582 0-1.06-.187-1.434-.561a1.866 1.866 0 01-.561-1.372V22.139c0-.498-.229-.748-.686-.748h-2.993c-.541 0-.998-.187-1.372-.561-.374-.374-.561-.852-.561-1.434s.187-1.06.561-1.434a1.865 1.865 0 011.372-.562h2.931c.499 0 .748-.332.748-.997V3.68c0-.54.187-.997.561-1.371.374-.375.852-.562 1.434-.562.583 0 1.061.187 1.435.562.374.374.561.831.561 1.371v12.91c0 .498.249.769.748.81h2.931c.541 0 .998.187 1.372.562.374.374.561.852.561 1.434s-.187 1.06-.561 1.434a1.865 1.865 0 01-1.372.561h-2.058c-.831 0-1.309.042-1.434.125-.125.083-.187.27-.187.561v23.26c0 .54-.187.997-.561 1.372-.374.374-.852.56-1.435.56zm14.693 0c-.582 0-1.06-.187-1.434-.561a1.866 1.866 0 01-.561-1.372V19.27c0-.54.187-.998.561-1.372.374-.374.852-.561 1.434-.561s1.06.187 1.434.561c.375.374.562.831.562 1.372v26.066c0 .54-.187.997-.562 1.372-.374.374-.852.56-1.434.56zm23.014.81c-4.365 0-8.086-1.538-11.162-4.614-3.035-3.118-4.552-6.839-4.552-11.162 0-4.324 1.517-8.003 4.552-11.038 3.076-3.076 6.797-4.614 11.162-4.614 3.742 0 7.068 1.164 9.978 3.492.332.208.498.624.498 1.247v3.43c0 .582-.124.873-.374.873-.208 0-.54-.25-.997-.748a13.019 13.019 0 00-4.054-3.305c-1.538-.832-3.222-1.248-5.051-1.248-3.242 0-6.007 1.185-8.293 3.555-2.287 2.328-3.43 5.113-3.43 8.356 0 3.242 1.143 6.07 3.43 8.48 2.286 2.37 5.051 3.555 8.293 3.555 1.954 0 3.742-.478 5.363-1.434a12.7 12.7 0 004.116-3.742c.249-.332.478-.499.686-.499a.48.48 0 01.187.063c.083.041.124.25.124.623v3.867c0 .623-.187 1.06-.561 1.31-2.868 2.369-6.173 3.553-9.915 3.553z" stroke="#4F5250" mask="url(#a)"/></symbol><symbol xmlns="http://www.w3.org/2000/svg" viewBox="0 0 30 30" id="meter"><path d="M9.525 3.895c-1.704 0-3.043.973-3.043 2.19s1.34 2.19 3.043 2.19c1.704 0 3.043-.973 3.043-2.19s-1.34-2.19-3.043-2.19zm0 3.164c-1.034 0-1.826-.548-1.826-.974 0-.487.792-.973 1.826-.973s1.826.547 1.826.973c0 .487-.792.974-1.826.974z" fill="currentColor"/><path d="M26.439 10.953h-7.911V6.085C18.528 2.738 14.512 0 9.522 0S.516 2.738.516 6.085V18.5c0 2.738 2.738 5.172 6.632 5.903v4.99c0 .365.244.608.609.608h18.681a3.013 3.013 0 003.043-3.043V13.996a3.013 3.013 0 00-3.043-3.043zM9.521 1.217c4.32 0 7.789 2.19 7.789 4.868 0 2.678-3.469 4.868-7.79 4.868-4.32 0-7.788-2.19-7.788-4.868 0-2.677 3.468-4.868 7.789-4.868zm7.789 7.91v1.826h-2.434c.973-.486 1.825-1.095 2.434-1.825zM7.148 16.43v6.694c-3.164-.67-5.415-2.495-5.415-4.625V9.128c1.582 1.825 4.442 3.042 7.789 3.042h16.916c1.035 0 1.826.791 1.826 1.826a1.793 1.793 0 01-1.825 1.825H7.757c-.365 0-.609.244-.609.609zm21.238 10.467h-.122a1.793 1.793 0 01-1.825 1.825h-.73v-2.8c0-.364-.244-.608-.61-.608-.364 0-.608.244-.608.609v2.8H22.24v-2.8c0-.365-.244-.609-.609-.609s-.608.244-.608.609v2.8H18.77v-2.8c0-.365-.243-.609-.608-.609s-.609.244-.609.609v2.8h-2.251v-2.8c0-.365-.244-.609-.609-.609s-.608.244-.608.609v2.8h-2.252v-2.8c0-.365-.243-.609-.608-.609-.366 0-.609.244-.609.609v2.8h-2.13v-4.686c0-.061.061-.122.061-.122 0-.122 0-.183-.06-.305v-6.572H26.56a3.13 3.13 0 001.826-.608v10.467z" fill="currentColor"/></symbol><symbol xmlns="http://www.w3.org/2000/svg" viewBox="0 0 30 30" id="price-tag"><g clip-path="url(#clip0)"><path d="M29.605.147a.5.5 0 00-.707 0L27.044 2H15.402L.767 16.756a1.753 1.753 0 00-.517 1.248c0 .47.184.914.517 1.247L11 29.485a1.77 1.77 0 002.5-.005l14.25-14.636V2.707L29.606.854a.5.5 0 000-.707zm-2.854 14.29l-13.963 14.34a.765.765 0 01-1.081 0L1.474 18.545a.766.766 0 01.001-1.082L15.819 3h10.225l-2.417 2.417A2.485 2.485 0 0022.251 5a2.503 2.503 0 00-2.5 2.5c0 1.379 1.121 2.5 2.5 2.5 1.378 0 2.5-1.121 2.5-2.5 0-.508-.155-.98-.417-1.376l2.417-2.417v10.73zm-3-6.937c0 .827-.673 1.5-1.5 1.5s-1.5-.673-1.5-1.5.673-1.5 1.5-1.5c.23 0 .447.057.642.15l-.996.997a.5.5 0 10.707.707l.996-.996c.094.195.15.411.15.642z" fill="currentColor"/></g><defs><clipPath id="clip0"><path fill="#fff" d="M0 0h30v30H0z"/></clipPath></defs></symbol><symbol xmlns="http://www.w3.org/2000/svg" viewBox="0 0 22 22" id="search"><path d="M9.98 3.086a6.691 6.691 0 11-6.686 6.692 6.722 6.722 0 016.685-6.692zm0-1.253a7.944 7.944 0 100 15.89 7.944 7.944 0 000-15.89zm11.409 18.511l-4.504-4.535-.868.862 4.504 4.535a.613.613 0 00.868-.862z" fill="currentColor"/></symbol><symbol xmlns="http://www.w3.org/2000/svg" viewBox="0 0 22 22" id="shopping-bag"><path d="M19.8 19.017L18.54 4.832a.606.606 0 00-.603-.553h-2.591A4.35 4.35 0 0011 0a4.35 4.35 0 00-4.346 4.279H4.063a.603.603 0 00-.603.553L2.2 19.017c0 .018-.005.036-.005.054 0 1.615 1.48 2.929 3.303 2.929h11.004c1.822 0 3.302-1.314 3.302-2.929 0-.018 0-.036-.004-.054zM11 1.215a3.135 3.135 0 013.131 3.064H7.87A3.135 3.135 0 0111 1.215zm5.502 19.57H5.498c-1.143 0-2.07-.756-2.088-1.687l1.206-13.6h2.033v1.844c0 .338.27.608.608.608.337 0 .607-.27.607-.608V5.498h6.267v1.844c0 .338.27.608.608.608.337 0 .607-.27.607-.608V5.498h2.034l1.21 13.6c-.018.931-.95 1.687-2.088 1.687z" fill="currentColor"/></symbol><symbol xmlns="http://www.w3.org/2000/svg" viewBox="0 0 20 20" id="arrow"><path fill-rule="evenodd" clip-rule="evenodd" d="M1.25 10a.625.625 0 00.625.625h14.741l-3.934 3.933a.627.627 0 00.885.885l5-5a.626.626 0 000-.885l-5-5a.625.625 0 10-.885.885l3.934 3.932H1.875A.625.625 0 001.25 10z" fill="currentColor"/></symbol><symbol xmlns="http://www.w3.org/2000/svg" viewBox="0 0 28 28" id="chatting"><g clip-path="url(#clip0)" fill="currentColor"><path d="M0 19.087a.82.82 0 001.297.668l4.51-3.217c.378-.27.824-.413 1.288-.413h9.92a3.17 3.17 0 003.166-3.166V2.549a.82.82 0 00-.82-.82H3.167A3.17 3.17 0 000 4.896v14.191zM1.64 4.896c0-.841.685-1.526 1.527-1.526H18.54v9.588c0 .842-.685 1.526-1.526 1.526h-9.92c-.808 0-1.583.248-2.24.718L1.64 17.494V4.896z"/><path d="M28 11.259a3.17 3.17 0 00-3.167-3.167h-2.191a.82.82 0 000 1.64h2.191c.842 0 1.526.685 1.526 1.527v12.598l-3.213-2.292a3.837 3.837 0 00-2.241-.718h-9.92a1.528 1.528 0 01-1.526-1.526v-.735a.82.82 0 00-1.64 0v.735a3.17 3.17 0 003.166 3.167h9.92c.464 0 .91.142 1.288.412l4.51 3.217A.821.821 0 0028 25.45V11.259zM5.899 7.839h9.477a.82.82 0 000-1.64H5.9a.82.82 0 000 1.64zm0 3.828h9.477a.82.82 0 000-1.64H5.9a.82.82 0 100 1.64z"/></g><defs><clipPath id="clip0"><path fill="#fff" d="M0 0h28v28H0z"/></clipPath></defs></symbol><symbol xmlns="http://www.w3.org/2000/svg" viewBox="0 0 20 20" id="check"><g clip-path="url(#clip0)"><path d="M8.06 19.511c.647.655 2.088.438 2.243-.592.965-6.39 5.793-11.78 9.447-16.86C20.763.65 18.434-.688 17.434.703c-3.34 4.642-7.548 9.526-9.194 15.158-1.882-1.922-3.77-3.827-5.88-5.517-1.337-1.07-3.249.816-1.898 1.897 2.75 2.203 5.125 4.77 7.599 7.269z" fill="currentColor"/></g><defs><clipPath id="clip0"><path fill="#fff" d="M0 0h20v20H0z"/></clipPath></defs></symbol><symbol xmlns="http://www.w3.org/2000/svg" viewBox="0 0 14 14" id="check-2"><path d="M2.334 7l3.5 3.5 5.833-7" stroke="currentColor" stroke-width="2" stroke-linecap="round" stroke-linejoin="round"/></symbol><symbol xmlns="http://www.w3.org/2000/svg" viewBox="0 0 20 20" id="delete"><path d="M10 1.429a2.857 2.857 0 012.854 2.714l.003.143h3.572a.714.714 0 01.083 1.423l-.083.005h-.607L14.98 16.11a2.679 2.679 0 01-2.67 2.463H7.69a2.679 2.679 0 01-2.67-2.463L4.177 5.714h-.605a.714.714 0 01-.71-.63L2.857 5a.714.714 0 01.631-.71l.084-.004h3.571A2.857 2.857 0 0110 1.429zM8.393 8.036a.536.536 0 00-.53.463l-.006.073v5.714l.005.073a.536.536 0 001.062 0l.005-.073V8.572l-.005-.073a.536.536 0 00-.53-.463zm3.214 0a.536.536 0 00-.53.463l-.005.073v5.714l.005.073a.536.536 0 001.061 0l.005-.073V8.572l-.005-.073a.535.535 0 00-.53-.463zM10 2.857A1.429 1.429 0 008.575 4.18l-.003.107h2.857l-.004-.107A1.429 1.429 0 0010 2.857z" fill="currentColor"/></symbol><symbol xmlns="http://www.w3.org/2000/svg" viewBox="0 0 30 30" id="delivery-truck"><g clip-path="url(#clip0)"><path d="M28.982 13.858l-2.043-.884L25.204 9.6a2.732 2.732 0 00-2.458-1.494h-2.987v-.844c0-1.527-1.22-2.773-2.746-2.773H2.733C1.206 4.488 0 5.741 0 7.261v12.927a1.684 1.684 0 001.661 1.708h.382c0 .067-.007.094-.007.134a3.47 3.47 0 006.94.027v-.034c0-.047 0-.067-.007-.134h11.54v.134a3.47 3.47 0 006.939.027v-.167h.864A1.69 1.69 0 0030 20.195v-4.783a1.68 1.68 0 00-1.018-1.554zM5.512 24.18a2.127 2.127 0 01-2.13-2.13c0-1.179.952-2.13 2.13-2.13 1.18 0 2.13.951 2.13 2.13 0 1.172-.957 2.13-2.13 2.13zm12.907-3.61H8.654a3.441 3.441 0 00-3.142-2.003 3.423 3.423 0 00-3.14 2.003h-.684c-.208 0-.348-.161-.348-.369v-3.449h17.08v3.818zm0-13.302v8.144H1.34V7.268c0-.784.61-1.433 1.394-1.433h14.28a1.42 1.42 0 011.406 1.426v.007zm1.34 2.183h2.987a1.414 1.414 0 011.273.757l1.34 2.592h-5.6V9.451zm4.226 14.729a2.127 2.127 0 01-2.13-2.13c0-1.179.951-2.13 2.13-2.13a2.131 2.131 0 010 4.26zm4.682-3.979c0 .208-.14.369-.348.369h-1.193a3.467 3.467 0 00-6.282 0h-1.085v-6.43h6.564l2.13.938a.394.394 0 01.214.361v4.762z" fill="currentColor"/></g><defs><clipPath id="clip0"><path fill="#fff" d="M0 0h30v30H0z"/></clipPath></defs></symbol><symbol xmlns="http://www.w3.org/2000/svg" viewBox="0 0 24 24" id="eye"><path d="M23.588 11.479c-.049-.062-1.212-1.52-3.205-2.985C17.719 6.537 14.82 5.502 12 5.502c-2.82 0-5.719 1.035-8.383 2.992C1.624 9.958.461 11.417.412 11.479l-.412.52.412.522c.049.062 1.212 1.52 3.205 2.985C6.281 17.463 9.18 18.498 12 18.498c2.82 0 5.719-1.035 8.383-2.992 1.993-1.465 3.156-2.923 3.205-2.985L24 12l-.412-.521zM12 16.552a4.557 4.557 0 01-4.408-5.691l-1.04-.175a5.589 5.589 0 001.641 5.422c-1.42-.525-2.63-1.262-3.542-1.929A17.658 17.658 0 012.19 12a17.661 17.661 0 012.46-2.178c.912-.667 2.121-1.404 3.543-1.93l.697.787A4.535 4.535 0 0112 7.448 4.557 4.557 0 0116.552 12 4.557 4.557 0 0112 16.552zm7.35-2.373c-.914.667-2.123 1.404-3.544 1.929A5.589 5.589 0 0017.603 12a5.589 5.589 0 00-1.797-4.108c1.422.525 2.63 1.262 3.543 1.929 1.13.825 1.978 1.66 2.46 2.179a17.651 17.651 0 01-2.46 2.18z" fill="currentColor"/><path d="M9.104 11.115a3.029 3.029 0 10.799-1.298l1.494 1.684-2.293-.386z" fill="currentColor"/></symbol><symbol xmlns="http://www.w3.org/2000/svg" viewBox="0 0 18 18" id="facebook"><g clip-path="url(#clip0)"><path d="M11.998 2.989h1.643V.127A21.22 21.22 0 0011.247 0c-2.37 0-3.992 1.49-3.992 4.23v2.52H4.64v3.2h2.615V18h3.205V9.95h2.51l.397-3.2H10.46V4.547c0-.924.25-1.557 1.538-1.557z" fill="currentColor"/></g><defs><clipPath id="clip0"><path fill="#fff" d="M0 0h18v18H0z"/></clipPath></defs></symbol><symbol xmlns="http://www.w3.org/2000/svg" viewBox="0 0 22 22" id="heart"><path d="M11 20.776a1.29 1.29 0 01-.85-.32 255.102 255.102 0 00-2.502-2.151l-.004-.003c-2.216-1.89-4.13-3.52-5.462-5.127C.693 11.379 0 9.675 0 7.815c0-1.808.62-3.476 1.745-4.696a5.916 5.916 0 014.4-1.916c1.27 0 2.434.402 3.458 1.193.516.4.984.89 1.397 1.46.413-.57.88-1.06 1.398-1.46 1.023-.791 2.186-1.193 3.456-1.193 1.7 0 3.262.68 4.4 1.916C21.38 4.339 22 6.007 22 7.815c0 1.86-.693 3.564-2.182 5.36-1.332 1.607-3.245 3.238-5.461 5.126a252.68 252.68 0 00-2.507 2.156 1.29 1.29 0 01-.85.32zM6.146 2.492a4.641 4.641 0 00-3.453 1.5c-.906.982-1.404 2.34-1.404 3.823 0 1.565.581 2.964 1.885 4.537 1.26 1.521 3.135 3.119 5.306 4.969l.004.003c.759.647 1.619 1.38 2.514 2.163.9-.784 1.762-1.519 2.523-2.167 2.17-1.85 4.045-3.447 5.305-4.968 1.304-1.573 1.885-2.972 1.885-4.537 0-1.483-.498-2.84-1.404-3.823a4.64 4.64 0 00-3.453-1.5c-.978 0-1.875.31-2.668.924-.707.546-1.199 1.237-1.487 1.72a.807.807 0 01-.699.397.807.807 0 01-.699-.397c-.288-.483-.78-1.174-1.487-1.72a4.274 4.274 0 00-2.668-.924z" fill="currentColor"/></symbol><symbol xmlns="http://www.w3.org/2000/svg" viewBox="0 0 18 18" id="instagram"><path d="M13.127 0H4.872A4.878 4.878 0 000 4.872v8.256A4.878 4.878 0 004.872 18h8.256A4.878 4.878 0 0018 13.128V4.872A4.878 4.878 0 0013.127 0zm3.818 13.128a3.821 3.821 0 01-3.818 3.817H4.872a3.821 3.821 0 01-3.817-3.817V4.872a3.821 3.821 0 013.817-3.817h8.256a3.821 3.821 0 013.817 3.817v8.256z" fill="currentColor"/><path d="M9 4.078A4.927 4.927 0 004.078 9 4.927 4.927 0 009 13.922 4.927 4.927 0 0013.922 9 4.927 4.927 0 009 4.078zm0 8.789A3.87 3.87 0 015.134 9 3.871 3.871 0 019 5.133 3.87 3.87 0 0112.867 9 3.87 3.87 0 019 12.867zM14.04 2.33a1.456 1.456 0 000 2.909c.801 0 1.454-.652 1.454-1.454 0-.802-.652-1.455-1.454-1.455zm0 1.854a.4.4 0 110-.8.4.4 0 010 .8z" fill="currentColor"/></symbol><symbol xmlns="http://www.w3.org/2000/svg" viewBox="0 0 18 18" id="dropdown-arrow"><path d="M9 12a.75.75 0 01-.48-.172l-4.5-3.75a.75.75 0 01.96-1.155L9 10.283l4.02-3.24a.75.75 0 011.058.112.751.751 0 01-.105 1.095l-4.5 3.623A.75.75 0 019 12z" fill="currentColor"/></symbol><symbol xmlns="http://www.w3.org/2000/svg" viewBox="0 0 20 20" id="filter-btn"><path clip-rule="evenodd" d="M6.19 3.81a.952.952 0 01.953.952v1.905a.952.952 0 11-1.905 0V4.762a.952.952 0 01.952-.952v0z" stroke="#4F5250" stroke-linecap="round" stroke-linejoin="round"/><path d="M17.62 5.714H7.142m-1.904 0H2.381" stroke="#4F5250" stroke-linecap="round" stroke-linejoin="round"/><path clip-rule="evenodd" d="M6.19 13.333a.952.952 0 01.953.953v1.905a.952.952 0 01-1.905 0v-1.905a.952.952 0 01.952-.953z" stroke="#4F5250" stroke-linecap="round" stroke-linejoin="round"/><path d="M17.62 15.238H7.142m-1.904 0H2.381" stroke="#4F5250" stroke-linecap="round" stroke-linejoin="round"/><path clip-rule="evenodd" d="M13.81 8.571a.952.952 0 01.952.953v1.905a.952.952 0 01-1.905 0V9.524a.952.952 0 01.953-.953v0z" stroke="#4F5250" stroke-linecap="round" stroke-linejoin="round"/><path d="M12.857 10.476H2.381m15.239 0h-2.858" stroke="#4F5250" stroke-linecap="round" stroke-linejoin="round"/></symbol><symbol fill="none" xmlns="http://www.w3.org/2000/svg" viewBox="0 0 46 20" id="filter-item-3"><path d="M43.248 4.117H27.814a2.753 2.753 0 00-2.75 2.75v1.086c-.75-.66-1.442-.994-2.065-.994-.622 0-1.315.335-2.067.995V6.867a2.753 2.753 0 00-2.749-2.75H2.749A2.753 2.753 0 000 6.867v6.266a2.753 2.753 0 002.75 2.75h15.434a2.754 2.754 0 002.75-2.75V9.855C21.558 9.08 22.478 8.28 23 8.28c.52 0 1.441.8 2.066 1.574v3.278a2.753 2.753 0 002.75 2.75h15.433A2.754 2.754 0 0046 13.134V6.867a2.756 2.756 0 00-2.752-2.75zM19.61 13.133c0 .788-.64 1.428-1.427 1.428H2.749a1.43 1.43 0 01-1.427-1.428V6.867c0-.787.64-1.427 1.427-1.427h15.435c.788 0 1.428.64 1.428 1.427v6.266zm25.065 0c0 .788-.64 1.428-1.428 1.428H27.814a1.43 1.43 0 01-1.428-1.428V6.867a1.43 1.43 0 011.428-1.427h15.434c.788 0 1.428.64 1.428 1.427v6.266z" fill="#660265"/></symbol><symbol fill="none" xmlns="http://www.w3.org/2000/svg" viewBox="0 0 46 20" id="filter-item-4"><g clip-path="url(#clip0)" fill="#660265"><path d="M7.783 19.763c-1.33 0-2.658-.369-3.883-1.07-1.94-1.14-3.148-3.016-3.69-5.752-.437-2.21-.158-4.419.787-6.26A10.285 10.285 0 013.288 3.77c1.68-1.456 3.586-1.841 5.894-2.174 1.54-.228 3.254-.404 5.387-.527C17.404.894 20.255.824 23 .841v.877c-2.728-.035-5.543.053-8.377.228-2.099.123-3.795.298-5.317.526-2.169.316-3.935.667-5.44 1.982a9.059 9.059 0 00-2.099 2.648C.91 8.75.647 10.767 1.05 12.783c.49 2.473 1.575 4.174 3.289 5.173 1.504.877 3.218 1.158 4.827.79 1.242-.281 2.519-.93 3.778-1.947 2.099-1.683 3.795-3.595 5.037-5.699.455-.772.77-1.578 1.12-2.438.35-.876.7-1.77 1.206-2.595.315-.526 1.277-2.14 2.746-1.911l-.14.859c-.594-.088-1.206.403-1.871 1.49-.472.772-.787 1.596-1.137 2.473-.332.86-.682 1.736-1.172 2.56-1.294 2.192-3.06 4.174-5.247 5.927-1.364 1.088-2.746 1.807-4.128 2.105a6.67 6.67 0 01-1.574.193z"/><path d="M38.217 19.763a7.03 7.03 0 01-1.592-.175c-1.382-.316-2.764-1.018-4.128-2.105-2.186-1.753-3.953-3.752-5.247-5.927-.49-.824-.84-1.718-1.172-2.56-.35-.877-.664-1.701-1.137-2.473-.664-1.104-1.276-1.578-1.871-1.49l-.14-.86c1.47-.227 2.431 1.386 2.746 1.912.507.842.857 1.736 1.207 2.613.332.859.664 1.666 1.12 2.437 1.241 2.087 2.938 4.016 5.036 5.7 1.26.999 2.52 1.665 3.779 1.946 1.608.368 3.322.088 4.827-.79 1.714-.999 2.798-2.7 3.288-5.172.402-2.017.157-4.016-.717-5.682a9.061 9.061 0 00-2.099-2.648c-1.504-1.297-3.27-1.648-5.44-1.981-1.521-.228-3.218-.386-5.317-.526a122.666 122.666 0 00-8.378-.228V.877c2.764-.035 5.597.052 8.43.228 2.135.14 3.849.298 5.388.526 2.309.35 4.215.719 5.894 2.174a9.99 9.99 0 012.291 2.911c.945 1.824 1.242 4.051.788 6.26-.543 2.736-1.767 4.63-3.708 5.752-1.19.667-2.52 1.035-3.848 1.035zM21.146.42v4.578c0 .56.874.56.874 0V.42c0-.561-.874-.561-.874 0z"/><path d="M23.945.42v4.578c0 .56.874.56.874 0V.42c0-.561-.874-.561-.874 0zM.21 7.085c.157.105.297.193.437.316.088.07.245.07.332.052a.495.495 0 00.263-.193c.052-.105.087-.228.052-.333a.496.496 0 00-.192-.263c-.14-.105-.28-.21-.437-.316-.193-.122-.49-.052-.595.158-.123.21-.07.456.14.579zm45.055-.755c-.157.105-.297.193-.437.316-.088.07-.175.14-.192.263a.376.376 0 00.052.333c.122.175.402.298.595.158.14-.105.28-.21.437-.316.192-.123.297-.403.158-.596-.14-.193-.42-.28-.613-.158zm-25.711 3.964c-.035 1.017-.752 1.946-1.486 2.578-.42.368.192.982.612.613.91-.789 1.679-1.946 1.731-3.191.053-.561-.822-.561-.857 0zm5.965 0c.052 1.245.822 2.42 1.731 3.191.42.369 1.05-.245.612-.613-.734-.632-1.434-1.561-1.486-2.578 0-.561-.875-.561-.857 0zM7.468 18.448c-.315 0-.63-.018-.927-.07-1.504-.228-2.763-1.052-3.638-2.35C1.12 13.38.734 10.066 1.906 7.593c.647-1.368 1.784-2.543 3.289-3.42 1.731-.999 4.722-1.63 8.867-1.858 1.837-.105 4.88-.123 5.702-.035v-.018l.21.018.14.175c.122.158.245.316-.297 2.823-.28 1.35-.665 2.56-1.172 3.736-1.26 2.876-3.184 5.418-5.58 7.33-1.381 1.07-3.463 2.104-5.597 2.104zM17.42 3.104c-3.235 0-9.06.245-11.788 1.824C4.285 5.717 3.27 6.75 2.693 7.96c-1.189 2.508-.384 5.612.945 7.576.752 1.122 1.784 1.789 3.043 1.981 2.152.334 4.425-.754 5.824-1.876 2.292-1.824 4.128-4.243 5.318-6.98.49-1.121.857-2.279 1.12-3.559.104-.526.279-1.438.349-1.946-.385-.036-1.05-.053-1.872-.053zm21.147 15.344c-2.117 0-4.216-1.035-5.563-2.122a19.105 19.105 0 01-6.75-11.065c-.526-2.508-.403-2.666-.298-2.824l.122-.158.21-.017c.227-.035.682-.035 1.68-.035.944-.018 2.413 0 4.005.087 4.145.228 7.136.842 8.867 1.86 1.504.876 2.641 2.051 3.288 3.419 1.172 2.472.788 5.787-.996 8.435-.875 1.315-2.134 2.121-3.639 2.35-.297.052-.611.07-.926.07zM26.743 3.138c.07.51.245 1.439.35 1.947.262 1.28.63 2.455 1.12 3.56a18.325 18.325 0 005.334 6.997c1.399 1.122 3.673 2.192 5.824 1.876 1.277-.193 2.291-.86 3.043-1.981 1.33-1.964 2.117-5.068.945-7.576-.577-1.192-1.592-2.245-2.938-3.034C36.975 2.946 28.7 3.07 26.743 3.14z"/></g><defs><clipPath id="clip0"><path fill="#fff" d="M0 0h46v19.763H0z"/></clipPath></defs></symbol><symbol fill="none" xmlns="http://www.w3.org/2000/svg" viewBox="0 0 46 19" id="filter-item-5"><path d="M14.434 15.553h-.322c-2.595-.135-5.19-1.085-7.327-2.696-1.578-1.188-3.698-3.02-4.071-5.292-.51-3.121-.407-4.733.322-4.902h.034c.407-.068 9.855-1.425 17.504 2.018.441-.085 1.866-.34 2.748-.254l-.102.848c-.746-.085-2.137.17-2.612.254l-.135.034-.136-.05C13.417 2.34 4.613 3.306 3.34 3.476c-.085.237-.271 1.12.204 3.952.322 1.967 2.29 3.664 3.748 4.75 2.002 1.509 4.444 2.408 6.853 2.51 1.323.067 2.629-.306 3.765-1.07.916-.61 2.137-1.644 2.646-3.018l.017-.051c.356-.933.95-2.51 2.392-2.46l-.034.848c-.763-.033-1.204.933-1.577 1.917l-.017.051c-.594 1.577-1.951 2.73-2.969 3.426a7.04 7.04 0 01-3.935 1.221z" fill="#660265"/><path d="M32.142 15.554c-2.069 0-4.223-1-5.699-2.663-.661-.746-1-1.526-1.357-2.357l-.084-.187c-.407-.95-.882-1.425-1.391-1.408l-.034-.848c.899-.034 1.628.61 2.205 1.917l.085.186c.339.797.644 1.493 1.204 2.12 1.39 1.544 3.426 2.46 5.326 2.358 2.408-.119 4.834-1 6.835-2.51 1.46-1.103 3.427-2.782 3.749-4.75.475-2.832.288-3.714.203-3.952-1.289-.17-10.075-1.136-16.995 2.036l-.136.05-.136-.033c-.016 0-1.73-.356-2.612-.255l-.101-.848c.865-.101 2.29.153 2.747.255 7.667-3.41 17.132-2.053 17.522-2.002h.034c.73.17.83 1.764.322 4.902-.373 2.273-2.51 4.105-4.07 5.292-2.138 1.612-4.733 2.561-7.311 2.68-.102.017-.204.017-.306.017zm-18.216-1.357c-2.24 0-4.614-1.103-7.073-3.308-.984-.882-2.07-2.46-2.138-3.901-.033-.696.17-1.29.594-1.747.204-.238.475-.424.797-.594.56-.288 1.17-.44 1.747-.577h.017a11.686 11.686 0 013.155-.339c1.408.051 2.884.34 4.376.882.848.306 1.713.679 2.579 1.137.848.44 2.001 1.068 2.272 2.408.204 1.018-.135 2.154-1 3.376-.068.084-1.646 2.272-4.58 2.612a5.33 5.33 0 01-.746.05zm-3.274-9.618c-.848 0-1.713.102-2.544.323H8.09c-.543.135-1.103.271-1.578.508a2.38 2.38 0 00-.56.408c-.27.305-.39.678-.372 1.136.05 1.136.966 2.527 1.848 3.308 2.545 2.272 4.953 3.307 7.158 3.053 2.578-.289 3.97-2.24 3.986-2.256.73-1.018 1.018-1.934.848-2.731-.17-.882-.899-1.323-1.849-1.832a19.316 19.316 0 00-2.459-1.103c-1.408-.508-2.799-.78-4.122-.83-.101.016-.22.016-.339.016z" fill="#660265"/><path d="M32.889 14.197a5.94 5.94 0 01-.764-.05c-2.95-.34-4.511-2.511-4.58-2.613-.864-1.221-1.203-2.357-1-3.375.271-1.357 1.425-1.968 2.273-2.409.865-.458 1.73-.848 2.578-1.136 1.51-.543 2.985-.831 4.393-.882a11.112 11.112 0 013.155.34h.017c.594.152 1.187.304 1.747.576.322.17.594.356.797.593.424.475.628 1.052.594 1.748-.068 1.424-1.153 3.019-2.137 3.9-2.46 2.206-4.834 3.308-7.073 3.308zm3.29-9.617h-.356c-1.323.05-2.697.322-4.122.831-.814.288-1.645.662-2.459 1.103-.933.491-1.662.95-1.849 1.831-.152.78.136 1.697.848 2.731.017.017 1.442 1.968 4.003 2.256 2.205.238 4.614-.78 7.158-3.053.882-.78 1.798-2.171 1.849-3.307.017-.458-.102-.832-.373-1.137a1.835 1.835 0 00-.56-.407c-.475-.237-1.035-.373-1.577-.509h-.017a9.373 9.373 0 00-2.545-.339zm-11.449.763c-1.018-.17-2.188-.068-2.205-.068l-.068-.848c.051 0 1.29-.102 2.409.085l-.136.831zm-.661 3.714c-.713-.339-1.408-.084-1.408-.084l-.305-.798a2.785 2.785 0 012.103.102l-.39.78z" fill="#660265"/></symbol><symbol fill="none" xmlns="http://www.w3.org/2000/svg" viewBox="0 0 46 10" id="filter-item-6"><g clip-path="url(#clip0)"><path d="M45.026.032c-3.588-.815-15.078-.186-18.04.881C23.771 2.07 23 1.939 23 1.939s-.771.131-3.985-1.026C16.052-.154 4.563-.783.974.033.559.126.185.611.134 1.034.03 1.923-.09 3.447.103 4.848c.058.422.433.942.792 1.169l1 .63C2.39 7.915 3.32 9.077 5.096 9.48c3.148.714 6.487.783 6.532.783.08.008.816.078 1.79.078 2.862 0 4.662-.562 5.348-1.667.594-.957 1.029-2.002 1.319-2.82C20.792 3.925 23 4.11 23 4.11s2.197-.209 2.904 1.72c.29.824.727 1.877 1.328 2.844.687 1.105 2.487 1.667 5.35 1.667 1.041 0 1.522-.027 1.743-.079v.003c.139-.002 3.433-.073 6.578-.785 1.873-.425 2.802-1.694 3.276-3.043l.895-.473c.377-.198.765-.695.824-1.117.192-1.401.073-2.924-.032-3.813-.052-.422-.425-.907-.84-1.002zm-25.61 4.056c-.005.023-.536 2.213-1.63 3.977-.436.7-2.068 1.119-4.366 1.119-.561 0-1.159-.026-1.722-.075-.137-.003-3.365-.082-6.344-.757-2.71-.614-2.834-3.752-2.892-5.26-.044-1.106.189-1.411 2.022-1.604 1.066-.112 2.963-.136 4.367-.136.812 0 1.425.008 1.588.01.15 0 3.708.01 7.254.852.81.193 1.347.511 1.6.948.254.438.14.87.124.926zm24.123-.995c-.06 1.508-.183 4.645-2.892 5.26-2.776.628-5.783.741-6.39.759-.008 0-.729.071-1.676.071-2.298 0-3.93-.418-4.365-1.12-1.045-1.684-1.58-3.764-1.641-4.01a1.229 1.229 0 01.132-.891c.253-.436.791-.755 1.6-.948 3.547-.842 7.116-.852 7.272-.852.05 0 .695-.01 1.57-.01 1.404 0 3.301.024 4.367.136 1.833.193 2.066.498 2.023 1.605z" fill="#660265"/></g><defs><clipPath id="clip0"><path fill="#fff" d="M0 0h46v10H0z"/></clipPath></defs></symbol><symbol fill="none" xmlns="http://www.w3.org/2000/svg" viewBox="0 0 46 20" id="filter-item-7"><g clip-path="url(#clip0)" stroke="#660265" stroke-miterlimit="10"><path d="M23.088.613C17.84.47 12.494.41 7.26.881c-1.603.141-3.253.217-4.79.736C.931 2.137.817 4.394.68 5.707a29.46 29.46 0 00.137 7.42c.364 2.454 1.413 4.556 3.97 5.199 2.516.633 5.29.306 7.812-.113a43.27 43.27 0 001.939-.368 5.887 5.887 0 003.367-2.155c.653-.853.95-1.945 1.348-2.932.425-1.058.863-2.11 1.341-3.145.303-.65.614-1.579 1.176-2.066.357-.333.828-.52 1.317-.519"/><path d="M22.912.613c5.247-.137 10.594-.19 15.827.274 1.603.143 3.253.217 4.79.736 1.538.52 1.649 2.777 1.79 4.09a29.558 29.558 0 01-.129 7.414c-.366 2.454-1.415 4.556-3.971 5.198-2.517.634-5.29.307-7.811-.112a42.556 42.556 0 01-1.939-.368 5.88 5.88 0 01-3.365-2.156c-.653-.852-.95-1.944-1.348-2.932a67.506 67.506 0 00-1.341-3.145c-.303-.65-.614-1.578-1.176-2.065a1.928 1.928 0 00-1.317-.52m-2.316 2.567c.67-1.569 2.124-5.002.087-6.17-.69-.394-1.697-.42-2.474-.541a43.253 43.253 0 00-2.948-.352 44.462 44.462 0 00-5.93-.098c-1.86.095-3.714.3-5.55.613-3.3.552-3.253 5.64-3.165 8.133"/><path d="M25.42 9.594c-.672-1.569-2.126-5.002-.089-6.17.691-.394 1.697-.42 2.474-.541a43.253 43.253 0 012.949-.352 44.461 44.461 0 015.93-.098c1.86.095 3.713.3 5.55.613 3.302.559 3.255 5.646 3.167 8.139"/></g><defs><clipPath id="clip0"><path fill="#fff" d="M0 0h46v19.193H0z"/></clipPath></defs></symbol><symbol fill="none" xmlns="http://www.w3.org/2000/svg" viewBox="0 0 43 26" id="filter-item-8"><g clip-path="url(#clip0)" fill="#660265"><path d="M5.543 25.083c-.42 0-.911-.127-1.386-.51-1.55-1.22-2.698-3.042-3.391-5.41-.693-2.35-.803-4.718-.766-6.303.11-4.772 3.464-9.235 8.17-10.856C11.907.71 16.137.054 21.134 0c2.99-.036 5.635.128 8.133.492 3.264.474 6.656 1.13 9.264 3.37 3.392 2.933 5.106 8.27 4.267 13.28-.054.382-.146.764-.237 1.147-.474 2.04-1.112 4.117-2.389 5.556-1.477 1.676-3.501.382-4.249-.11-1.076-.692-2.133-1.348-3.136-1.985a225.496 225.496 0 01-3.647-2.332c-.584-.382-1.186-.801-1.77-1.202-.51-.364-1.057-.729-1.568-1.075-.164-.109-.346-.218-.529-.328-.82-.491-1.732-1.038-1.987-2.222l-.857-2.714c-.037-.073-.2-.364-.93-.364-.164 0-.766.054-.876.364l-.364 1.293c-.073.255-.128.51-.2.784-.11.455-.22.947-.402 1.402-.219.583-.675.91-1.076 1.202l-1.732 1.257c-1.168.838-2.335 1.694-3.484 2.532l-1.55 1.13-5.16 3.26c-.22.164-.62.346-1.113.346zm-.82-1.238c.766.6 1.404.164 1.422.146l.018-.019 5.161-3.26 1.514-1.112a422.176 422.176 0 013.483-2.532l1.732-1.257c.347-.255.62-.455.748-.783.146-.4.255-.856.365-1.293.054-.273.127-.547.2-.82l.365-1.311c.255-.838 1.222-1.039 1.75-1.02 1.423 0 1.751.838 1.824 1.038l.857 2.787c.164.801.803 1.184 1.55 1.64.183.109.383.218.566.345.528.347 1.075.73 1.586 1.075.584.4 1.167.802 1.75 1.184 1.24.802 2.463 1.585 3.63 2.314 1.02.637 2.078 1.311 3.154 1.985 1.496.966 2.39 1.038 3.082.255 1.149-1.293 1.733-3.242 2.189-5.155.09-.364.164-.729.218-1.075.803-4.681-.784-9.69-3.957-12.423-2.425-2.095-5.544-2.696-8.808-3.17-2.443-.364-5.051-.51-7.987-.473-4.887.055-9.027.692-12.674 1.949-4.34 1.494-7.458 5.629-7.55 10.019-.036 2.368.22 8.179 3.812 10.966z"/><path d="M5.69 23.152c-.31 0-.602-.073-.857-.273-1.259-1.02-3.374-3.516-3.246-8.744.018-1.056.146-2.058.328-2.987.401-1.858 1.13-3.461 2.17-4.755.474-.6 1.222-1.42 2.079-2.022.912-.619 1.732-.856 2.48-.674 1.112.274 2.152 1.057 3.082 1.767l.437.328c.712.529 1.423 1.093 2.116 1.64.328.273.675.528 1.003.801l2.024 1.603c.693.547 1.313 1.111 1.422 2.24a4.05 4.05 0 01-.529 2.442c-.273.492-.693.783-1.094 1.074-.073.055-.164.11-.237.183-.529.4-1.057.801-1.604 1.202-1.295.947-2.608 1.913-3.885 2.823l-2.626 1.913-.036.037c-.657.455-1.951 1.402-3.027 1.402zM6.71 5.118c-.801.565-1.53 1.403-1.896 1.84-.948 1.184-1.623 2.66-1.987 4.372a15.21 15.21 0 00-.31 2.823c-.037 1.676.164 5.811 2.9 7.997.2.164.838.237 2.753-1.147l.036-.037c.876-.637 1.75-1.275 2.644-1.913 1.277-.928 2.59-1.876 3.885-2.823.529-.4 1.057-.783 1.586-1.184.091-.073.182-.127.255-.182.347-.237.657-.474.84-.802.31-.546.473-1.257.4-1.894-.072-.71-.4-1.093-1.075-1.621l-2.025-1.603c-.346-.274-.674-.529-1.003-.802a62.945 62.945 0 00-2.078-1.621l-.438-.328c-.857-.656-1.824-1.384-2.754-1.603-.474-.127-1.057.055-1.732.528zM38.331 22.97c-1.02 0-3.738-1.767-4.321-2.15-.31-.182-4.085-2.295-6.2-3.843-.53-.4-1.076-.802-1.605-1.202-.073-.055-.164-.128-.237-.183-.402-.291-.821-.582-1.095-1.074-.419-.71-.601-1.603-.528-2.441.11-1.13.73-1.713 1.422-2.24l2.024-1.604c.328-.255.675-.528 1.003-.801a49.777 49.777 0 012.116-1.64c.145-.109.273-.218.437-.328.93-.692 1.97-1.493 3.082-1.767.73-.182 1.568.055 2.48.674.857.602 1.605 1.421 2.079 2.022 1.04 1.294 1.769 2.897 2.17 4.755.2.929.31 1.93.328 2.987.055 2.35-1.24 7.232-2.48 8.489-.218.237-.456.346-.675.346zm-3.41-18.416c-.09 0-.2.018-.291.036-.93.219-1.897.966-2.754 1.603l-.438.328a62.95 62.95 0 00-2.078 1.621c-.329.273-.675.547-1.003.802l-2.025 1.603c-.674.528-1.003.91-1.076 1.62-.073.638.092 1.349.402 1.895.182.328.51.547.838.802.092.054.183.127.256.182.529.4 1.058.802 1.586 1.184 2.116 1.567 6.073 3.77 6.11 3.789l.036.018c1.222.82 3.173 1.968 3.793 2.004.674-.4 2.352-5.01 2.298-7.906a15.558 15.558 0 00-.31-2.823c-.365-1.713-1.04-3.188-1.988-4.372-.365-.456-1.095-1.275-1.897-1.84-.547-.364-1.04-.546-1.459-.546zm-13.33 5.429c-.93 0-1.933-.055-2.845-.328-.802-.237-1.404-.729-1.987-1.184l-.037-.037c-.875-.692-1.787-1.42-2.662-2.13-.146-.128-.347-.256-.53-.383-.692-.474-1.458-1.002-1.695-1.84a1.224 1.224 0 01.11-.947c.236-.42.729-.71 1.495-.911.09-.018.2-.055.291-.073 3.228-.783 6.857-1.057 10.778-.802 1.094.073 2.17.237 3.21.383.528.073 1.075.164 1.622.237.128.018 1.331.182 1.587 1.02.255.838-.62 1.603-.912 1.858a94.84 94.84 0 00-1.477 1.293c-.73.638-1.495 1.312-2.243 1.95a7.31 7.31 0 00-.401.364c-.456.419-.93.838-1.477 1.11-.748.365-1.569.42-2.28.438-.182-.018-.365-.018-.547-.018zm-7.659-6.94c-.091.018-.2.054-.292.072-.675.164-.875.365-.93.474-.018.036-.055.11-.018.237.146.528.784.965 1.331 1.348.219.146.401.273.584.419.893.71 1.805 1.439 2.662 2.131l.037.036c.565.456 1.04.838 1.677 1.02.967.292 2.116.292 3.1.274.62-.018 1.313-.055 1.897-.346.438-.219.857-.601 1.276-.966l.438-.382a113.23 113.23 0 002.225-1.95c.492-.437.985-.856 1.477-1.293.565-.492.675-.801.638-.91-.054-.183-.529-.347-.82-.383-.547-.073-1.113-.146-1.642-.237-1.02-.146-2.078-.31-3.136-.382-3.811-.2-7.35.072-10.504.838z"/></g><defs><clipPath id="clip0"><path fill="#fff" d="M0 0h43v25.083H0z"/></clipPath></defs></symbol><symbol fill="none" xmlns="http://www.w3.org/2000/svg" viewBox="0 0 46 19" id="filter-item-1"><g clip-path="url(#clip0)" fill="#660265"><path d="M11.768 18.031c-2.47 0-4.378-1.161-4.57-1.287-2.137-1.215-3.8-3.466-4.781-6.522-.735-2.288-.84-4.182-.84-4.254-.07-.84-1.034-.983-1.086-1l-.298-.036-.07-.304c-.35-1.537.193-2.323.263-2.413l.14-.178h.21C2.75 2.037 6.269.91 6.304.893c7.372-2.413 11.977.697 13.01 1.5l.578-.25 3.117-.053.018.894-2.942.053-.928.393-.21-.178c-.053-.036-4.64-4.04-12.398-1.501-.14.053-3.397 1.09-5.568 1.18-.07.214-.175.607-.07 1.214.613.179 1.436.697 1.523 1.752 0 .089.438 7.363 5.184 10.061l.017.018c.158.107 4.08 2.556 7.845 0l.052-.036s.788-.375 1.716-1.34c.858-.894 2.014-2.466 2.662-4.95l.49-2.77c-.227-.286-.595-.84-.438-1.43.14-.536.666-.912 1.524-1.108.017 0 .77-.197 1.506-.16l-.053.893c-.595-.036-1.243.125-1.26.125-.508.107-.841.286-.876.464-.053.197.192.554.368.733l.175.16-.035.233-.543 3.056c-1.296 4.986-4.448 6.684-4.833 6.88a7.188 7.188 0 01-4.168 1.305z"/><path d="M11.557 16.548c-1.594 0-3.17-.554-4.553-1.644-1.908-1.483-3.152-3.77-3.327-6.094a6.427 6.427 0 010-1.162c.035-.518.105-1 .228-1.465.105-.393.245-.768.403-1.126.56-1.18 1.488-2.09 2.784-2.698a8.774 8.774 0 012.03-.662c2.47-.482 4.904-.232 6.707.697a5.606 5.606 0 012.4 2.306c1.19 2.198 1.348 4.682.455 6.809-1.069 2.484-3.345 4.414-5.796 4.896-.456.09-.893.143-1.331.143zM7.442 3.11c-1.12.536-1.926 1.305-2.399 2.306-.14.303-.263.625-.35.965a7.788 7.788 0 00-.21 1.304c-.018.375-.018.733 0 1.055.157 2.09 1.295 4.146 3.011 5.504 1.576 1.215 3.415 1.698 5.201 1.358 2.206-.429 4.238-2.162 5.2-4.396.806-1.895.649-4.11-.42-6.076a4.894 4.894 0 00-2.048-1.966c-1.611-.84-3.923-1.073-6.164-.626a7.802 7.802 0 00-1.821.572zm26.966 13.439c-.438 0-.876-.036-1.296-.125-2.469-.483-4.745-2.413-5.813-4.897-.91-2.127-.736-4.61.455-6.809.525-.983 1.348-1.769 2.399-2.305 1.803-.93 4.237-1.18 6.706-.697a7.996 7.996 0 012.032.661c1.295.626 2.241 1.52 2.784 2.699.157.357.297.732.403 1.126.122.464.192.965.227 1.465a6.43 6.43 0 010 1.162c-.175 2.34-1.418 4.61-3.327 6.094-1.4 1.054-2.977 1.626-4.57 1.626zm.035-14.243c-1.47 0-2.837.286-3.922.84-.893.464-1.611 1.143-2.05 1.965-1.067 1.966-1.207 4.182-.42 6.077.946 2.251 2.995 3.967 5.201 4.396 1.786.34 3.625-.125 5.2-1.358 1.734-1.34 2.855-3.396 3.013-5.505a10.69 10.69 0 000-1.054 7.545 7.545 0 00-.21-1.305 5.71 5.71 0 00-.35-.965c-.474-1-1.28-1.769-2.4-2.305a6.969 6.969 0 00-1.838-.59 13.193 13.193 0 00-2.224-.196z"/><path d="M34.233 18.032a7.381 7.381 0 01-4.185-1.287c-.385-.196-3.537-1.894-4.833-6.88v-.036l-.578-3.252.175-.161c.175-.179.42-.518.368-.733-.053-.179-.368-.357-.876-.465-.017 0-.665-.16-1.278-.142l-.052-.894a5.49 5.49 0 011.523.16c.858.197 1.366.573 1.506 1.109.157.59-.21 1.144-.438 1.43l.49 2.77c.648 2.484 1.804 4.056 2.662 4.95.928.965 1.716 1.34 1.716 1.34l.053.036c3.782 2.555 7.81.018 7.844 0l.018-.018c4.745-2.698 5.183-9.972 5.183-10.044.087-1.072.91-1.59 1.523-1.769.105-.607 0-1.018-.07-1.215-2.154-.09-5.41-1.126-5.55-1.18-7.793-2.537-12.345 1.466-12.38 1.502l-.21.178-.929-.393-2.941-.053.017-.894 3.117.054.578.25c1.033-.822 5.638-3.914 13.01-1.501.035.018 3.555 1.143 5.551 1.143h.21l.14.18c.07.088.613.875.263 2.412l-.07.304-.298.035c-.035 0-.998.161-1.085 1.019 0 .071-.106 1.966-.841 4.235-.98 3.039-2.627 5.29-4.78 6.523-.175.108-2.102 1.287-4.553 1.287z"/></g><defs><clipPath id="clip0"><path fill="#fff" d="M0 0h46v18.032H0z"/></clipPath></defs></symbol><symbol fill="none" xmlns="http://www.w3.org/2000/svg" viewBox="0 0 46 16" id="filter-item-2"><g clip-path="url(#clip0)" fill="#660265"><path d="M12.028 15.439c-.438 0-.876-.015-1.33-.047-1.704-.124-3.018-.418-4.144-.93-.298-.14-.642-.31-.939-.544-1.501-1.008-3.128-5.803-3.3-6.346v-.015C1.517 4.687.345 4.454.328 4.454L0 4.423l.016-.326V2.25a5.2 5.2 0 010-.699v-.03C0 1.396-.016 1.21.094 1.055c.172-.218.5-.264.985-.31.078 0 .141-.016.172-.016A50.202 50.202 0 018.477.016c3.379-.077 6.538.186 9.37.791a19.45 19.45 0 011.548.388l.047.016 1.032.652 2.518-.031.016.729-2.737.03-1.142-.713a16.11 16.11 0 00-1.44-.357c-2.783-.59-5.88-.853-9.196-.776a50.472 50.472 0 00-7.101.699c-.047.015-.14.015-.235.03a2.05 2.05 0 00-.406.047V1.6a4.11 4.11 0 000 .62v1.599c.532.232 1.564.993 2.268 3.522.469 1.427 1.924 5.26 3.018 5.973l.032.016c.25.201.547.341.797.465 1.048.481 2.284.76 3.88.87 1.172.077 2.361.03 3.253-.032.187-.015.39-.015.578-.03.876-.047 1.768-.079 2.519-.435.891-.42 1.407-1.335 1.689-2.033h.015c.094-.233.438-.946 1.627-3.46a2.854 2.854 0 012.55-1.986l.062.73c-1.548.139-1.908 1.458-1.924 1.473l-.015.062s-1.549 3.259-1.627 3.445c-.47 1.164-1.189 1.986-2.049 2.405-.876.419-1.861.465-2.8.512-.187.015-.375.015-.563.03a20.13 20.13 0 01-2.033.094z"/><path d="M11.59 14.384c-1.298 0-2.784-.155-4.035-.885-1.909-1.086-2.894-3.196-3.551-4.918-.47-1.226-.954-2.7-.954-4.236 0-1.164.375-2.033 1.08-2.452.156-.093.328-.17.53-.217.173-.046.33-.077.486-.108a27.618 27.618 0 016.506-.435 29.14 29.14 0 013.285.373c.125.015.266.046.407.062.829.14 1.689.279 2.471.605 1.204.496 2.111 1.598 2.424 2.948.313 1.334.078 2.855-.672 4.546-.86 1.877-2.05 3.243-3.457 3.925-1.157.574-2.487.699-3.629.76-.297.016-.594.032-.891.032zM10.182 1.83c-1.658 0-3.3.156-4.927.466-.14.03-.281.046-.422.093a2.81 2.81 0 00-.36.14c-.625.372-.72 1.303-.72 1.815 0 1.412.47 2.808.908 3.972.61 1.598 1.533 3.569 3.238 4.546 1.392.792 3.16.822 4.535.76 1.064-.046 2.3-.17 3.332-.682 1.58-.776 2.55-2.374 3.081-3.584.688-1.536.892-2.902.626-4.081-.25-1.102-1.017-2.033-1.986-2.436-.689-.28-1.518-.419-2.3-.559-.14-.015-.266-.046-.406-.062a24.478 24.478 0 00-3.191-.357c-.47-.03-.939-.03-1.408-.03zm23.79 13.608c-.735 0-1.439-.03-2.017-.077-.188-.016-.376-.016-.564-.031-.938-.047-1.923-.093-2.8-.512-.86-.42-1.579-1.242-2.048-2.405a895.156 895.156 0 01-1.627-3.445l-.015-.062c-.016-.046-.392-1.334-1.924-1.474l.062-.729a2.854 2.854 0 012.55 1.986c1.188 2.514 1.533 3.227 1.626 3.46h.016c.281.698.798 1.614 1.69 2.033.75.357 1.642.403 2.517.434.188.016.392.016.579.031.892.062 2.08.109 3.253.031 1.611-.109 2.847-.388 3.88-.869.25-.124.547-.263.797-.465l.031-.016c1.095-.713 2.55-4.546 3.02-5.973.703-2.53 1.735-3.29 2.267-3.523V2.234c0-.217.016-.419 0-.62v-.078c-.125-.015-.313-.046-.407-.046-.094-.016-.187-.016-.234-.031-2.378-.404-4.755-.652-7.101-.699-3.316-.077-6.413.187-9.197.776-.438.093-.954.217-1.44.357l-1.14.714-2.754-.047.016-.729 2.518.031 1.032-.652.047-.015a15.23 15.23 0 011.549-.388c2.83-.605 5.99-.885 9.369-.791 2.377.062 4.801.294 7.21.713.031 0 .11.016.172.016.485.046.814.093.986.31.125.155.109.342.094.466v.046c.015.217.015.45 0 .683v2.172l-.329.031s-1.173.233-1.97 3.088v.015c-.189.543-1.8 5.338-3.301 6.346a3.66 3.66 0 01-.938.543c-1.127.512-2.44.807-4.146.931-.453.062-.907.062-1.329.062z"/><path d="M34.41 14.384c-.313 0-.61-.016-.891-.016-1.142-.046-2.472-.186-3.63-.76-1.407-.698-2.596-2.048-3.425-3.941-.75-1.676-.97-3.212-.672-4.546.313-1.35 1.22-2.452 2.424-2.948.767-.326 1.627-.466 2.471-.605.141-.016.266-.047.407-.062 1.08-.187 2.174-.31 3.285-.373a27.62 27.62 0 016.507.435c.14.03.312.062.484.108.204.062.376.124.532.217.704.42 1.08 1.288 1.08 2.452 0 1.536-.486 2.995-.955 4.236-.672 1.707-1.673 3.817-3.582 4.918-1.25.714-2.737.885-4.035.885zM35.802 1.83c-.47 0-.938.016-1.407.031a27.514 27.514 0 00-3.191.357c-.141.016-.266.047-.407.062-.798.14-1.611.264-2.3.559-.969.403-1.735 1.334-1.986 2.436-.265 1.18-.062 2.545.626 4.08.532 1.195 1.502 2.793 3.081 3.585 1.048.512 2.268.636 3.332.682 1.376.063 3.144.032 4.536-.76 1.705-.977 2.628-2.948 3.237-4.546.438-1.18.907-2.56.907-3.972 0-.512-.093-1.443-.72-1.815a1.084 1.084 0 00-.359-.14l-.422-.093c-1.611-.326-3.269-.466-4.927-.466zM21.068 4.422h4.005c.5 0 .5-.776 0-.776h-4.005c-.5 0-.5.776 0 .776zm.782 1.334h2.44c.501 0 .501-.776 0-.776h-2.44c-.5 0-.5.776 0 .776z"/></g><defs><clipPath id="clip0"><path fill="#fff" d="M0 0h46v15.438H0z"/></clipPath></defs></symbol><symbol xmlns="http://www.w3.org/2000/svg" viewBox="0 0 14 14" id="minus"><path d="M12.6 7.7a.7.7 0 100-1.4H1.4a.7.7 0 000 1.4h11.2z" fill="currentColor"/></symbol><symbol xmlns="http://www.w3.org/2000/svg" viewBox="0 0 16 16" id="plus"><path d="M8 2a.75.75 0 01.75.75v4.5h4.5a.75.75 0 110 1.5h-4.5v4.5a.75.75 0 11-1.5 0v-4.5h-4.5a.75.75 0 010-1.5h4.5v-4.5A.75.75 0 018 2z" fill="currentColor"/></symbol><symbol xmlns="http://www.w3.org/2000/svg" viewBox="0 0 24 24" id="cross"><path d="M13.96 11.934l9.72-9.72A1.333 1.333 0 0021.8.334l-9.72 9.72L2.36.32A1.333 1.333 0 00.48 2.2l9.72 9.733-9.734 9.72a1.335 1.335 0 101.88 1.88l9.733-9.72 9.72 9.72a1.333 1.333 0 001.88-1.88l-9.72-9.72z" fill="currentColor"/></symbol><symbol fill="none" xmlns="http://www.w3.org/2000/svg" viewBox="0 0 24 24" id="notebook"><g clip-path="url(#clip0)" fill="#fff"><path d="M14.896 1.529h-1.492v.805c0 .379-.29.704-.668.722a.703.703 0 01-.738-.702V1.53H8.502v.805c0 .379-.29.704-.668.722a.703.703 0 01-.738-.702V1.53H3.6v.805a.716.716 0 01-.67.722.703.703 0 01-.736-.702V1.53H.704A.705.705 0 000 2.232V5.34h15.599V2.232a.705.705 0 00-.704-.703zM0 23.297c0 .387.316.703.703.703h14.193a.705.705 0 00.703-.703V6.747H0v16.55zm3.319-13.72h8.96a.703.703 0 010 1.406H3.32a.703.703 0 010-1.406zm0 3.396h8.96a.703.703 0 110 1.406H3.32a.703.703 0 010-1.406zm0 3.395h8.96a.703.703 0 010 1.406H3.32a.703.703 0 110-1.406zm0 3.395h8.96a.703.703 0 010 1.407H3.32a.703.703 0 010-1.407zM3.6.703a.703.703 0 00-1.406 0v.826H3.6V.703zm9.804 0a.703.703 0 10-1.406 0v.826h1.406V.703zm-4.902 0a.703.703 0 10-1.406 0v.826h1.406V.703zM20.299 3.94H24v14.78h-3.7V3.94zm1.633 19.912c.08.195.355.195.434 0L24 20.127h-3.7l1.633 3.725zM23.297 0h-2.295a.703.703 0 00-.703.703v1.831H24V.704A.703.703 0 0023.297 0z"/></g><defs><clipPath id="clip0"><path fill="#fff" d="M0 0h24v24H0z"/></clipPath></defs></symbol><symbol fill="none" xmlns="http://www.w3.org/2000/svg" viewBox="0 0 24 24" id="phone"><path d="M10.147 13.76a13.579 13.579 0 004.933 3.193l2.513-2a.447.447 0 01.507 0l4.667 3.007a1.334 1.334 0 01.22 2.12L20.8 22.24a2.667 2.667 0 01-2.42.713 23.393 23.393 0 01-11.433-6 22.526 22.526 0 01-6.18-11.22A2.52 2.52 0 011.5 3.367L3.767 1.18a1.333 1.333 0 012.08.213L8.953 6a.42.42 0 010 .5L6.907 8.96c.71 1.82 1.817 3.46 3.24 4.8z" fill="#fff"/></symbol><symbol fill="none" xmlns="http://www.w3.org/2000/svg" viewBox="0 0 24 21" id="telegram"><path d="M.42 10.049l5.519 2.057 2.15 6.92c.094.468.655.562 1.03.281l3.085-2.525c.281-.28.749-.28 1.123 0l5.517 4.022c.374.28.936.093 1.03-.374L23.987.79c.093-.467-.374-.935-.842-.748L.421 8.833c-.561.187-.561 1.029 0 1.216zm7.389 1.029l10.848-6.64c.187-.094.374.187.187.28L9.96 13.041c-.28.281-.561.655-.561 1.123l-.28 2.244c0 .28-.468.374-.562 0l-1.122-4.115c-.28-.467-.094-1.028.374-1.215z" fill="#fff"/></symbol><symbol fill="none" xmlns="http://www.w3.org/2000/svg" viewBox="0 0 22 24" id="viber"><path d="M16.96.57a32.33 32.33 0 00-12.084 0C3.116.95.899 3.076.516 4.747a23.863 23.863 0 000 9.874c.46 1.671 2.677 3.798 4.36 4.177.076 0 .153.076.153.152v4.785c0 .228.306.38.459.152l2.294-2.354s1.836-1.9 2.142-2.203c0 0 .077-.076.153-.076 2.294.076 4.665-.152 6.96-.532 1.76-.38 3.977-2.506 4.36-4.177a23.865 23.865 0 000-9.874C20.937 3.076 18.72.95 16.96.57zm.077 14.279c-.382.76-.841 1.367-1.606 1.747l-.688.228a9.615 9.615 0 01-.765-.228c-2.448-.988-4.742-2.355-6.578-4.33A18.266 18.266 0 014.876 8.47c-.306-.684-.612-1.291-.841-1.975-.23-.608.153-1.215.535-1.671.382-.456.841-.76 1.377-.987.382-.228.765-.076 1.07.228.612.759 1.224 1.519 1.683 2.354.306.532.23 1.14-.306 1.52-.153.075-.23.151-.382.303-.077.076-.23.152-.306.304-.153.228-.153.455-.077.683.612 1.747 1.76 3.114 3.519 3.874.306.152.535.228.918.228.535-.076.764-.684 1.147-.988.382-.303.841-.303 1.3-.076.383.228.765.532 1.224.836.382.304.765.532 1.147.835.23.152.306.532.153.912zm-3.212-5.697c-.077 0-.153 0 0 0-.306 0-.383-.152-.46-.38 0-.151 0-.38-.076-.531a1.443 1.443 0 00-.535-.836l-.459-.227c-.23-.076-.382-.076-.612-.076-.23-.076-.306-.228-.306-.456 0-.152.23-.304.383-.304 1.223.076 2.141.76 2.294 2.203v.304c0 .151-.076.303-.23.303zM13.06 5.81c-.383-.151-.765-.303-1.224-.38-.153 0-.382-.075-.535-.075-.23 0-.383-.152-.306-.38 0-.228.153-.38.382-.304.765.076 1.453.228 2.142.532 1.377.683 2.141 1.823 2.37 3.342v.987c-.076.304-.611.38-.688 0 0-.076-.076-.228-.076-.304 0-.683-.153-1.367-.459-1.974-.459-.684-.994-1.14-1.606-1.444zm4.13 4.558c-.23 0-.382-.228-.382-.456 0-.456-.077-.912-.153-1.367-.306-2.43-2.295-4.406-4.666-4.785-.382-.076-.765-.076-1.07-.152-.23 0-.536 0-.613-.304-.076-.228.153-.456.383-.456h.153c.153 0 3.136.076 0 0 3.212.076 5.89 2.203 6.425 5.393.076.532.152 1.063.152 1.67.154.229 0 .457-.229.457z" fill="#fff"/></symbol><symbol fill="none" xmlns="http://www.w3.org/2000/svg" viewBox="0 0 24 24" id="whatsapp"><path d="M20.488 3.5A11.918 11.918 0 0012.042 0C5.436 0 .084 5.333.084 11.917c0 2.083.585 4.166 1.588 5.916L0 24l6.355-1.667a12.226 12.226 0 005.687 1.417C18.648 23.75 24 18.417 24 11.833 23.916 8.75 22.746 5.75 20.488 3.5zm-2.676 12.667c-.251.666-1.422 1.333-2.007 1.416a4.687 4.687 0 01-1.84-.083c-.418-.167-1.003-.333-1.672-.667-3.01-1.25-4.934-4.25-5.101-4.5-.168-.166-1.255-1.583-1.255-3.083 0-1.5.753-2.167 1.004-2.5.25-.333.585-.333.836-.333h.585c.168 0 .418-.084.67.5.25.583.836 2.083.92 2.166a.53.53 0 010 .5 1.745 1.745 0 01-.335.5c-.168.167-.335.417-.418.5-.168.167-.335.334-.168.584.168.333.753 1.25 1.673 2.083 1.17 1 2.09 1.333 2.425 1.5.334.167.502.083.669-.083.167-.167.752-.834.92-1.167.167-.333.418-.25.669-.167.25.084 1.756.834 2.007 1 .334.167.502.25.585.334.084.25.084.833-.167 1.5z" fill="#fff"/></symbol><symbol fill="none" xmlns="http://www.w3.org/2000/svg" viewBox="0 0 24 24" id="instagram_2"><path d="M20.585 0H3.415C1.477 0 0 1.477 0 3.415v17.17C0 22.523 1.477 24 3.415 24h17.17C22.523 24 24 22.523 24 20.585V3.415C24 1.477 22.523 0 20.585 0zM12 19.2c3.97 0 7.2-3.139 7.2-6.923 0-.646-.092-1.385-.277-1.938h2.03v9.784a.924.924 0 01-.922.923H3.969a.925.925 0 01-.923-.923v-9.877H5.17a7.026 7.026 0 00-.277 1.939C4.8 16.06 8.031 19.2 12 19.2zm0-2.77c-2.585 0-4.615-2.03-4.615-4.522 0-2.493 2.03-4.523 4.615-4.523 2.585 0 4.615 2.03 4.615 4.523 0 2.584-2.03 4.523-4.615 4.523zm8.861-9.876c0 .554-.461 1.015-1.015 1.015h-2.584a1.024 1.024 0 01-1.016-1.015V4.062c0-.554.462-1.016 1.016-1.016h2.584c.554 0 1.015.462 1.015 1.016v2.492z" fill="#fff"/></symbol><symbol fill="none" xmlns="http://www.w3.org/2000/svg" viewBox="0 0 24 24" id="messanger"><path d="M12 0C5.373 0 0 4.974 0 11.111a10.8 10.8 0 004.438 8.633l.031.021V24l4.088-2.242c1.031.295 2.215.464 3.439.464H12c6.627 0 12-4.975 12-11.11S18.627 0 12 0zm1.191 14.963L10.136 11.7l-5.963 3.26L10.732 8l3.131 3.259L19.752 8l-6.561 6.963z" fill="#fff"/></symbol><symbol fill="none" xmlns="http://www.w3.org/2000/svg" viewBox="0 0 20 18" id="star-full"><path d="M18.89 8.322a1.234 1.234 0 00-.717-2.222l-5-.189a.128.128 0 01-.111-.083L11.334 1.16a1.233 1.233 0 00-2.317 0L7.295 5.844a.128.128 0 01-.111.084l-5 .189a1.233 1.233 0 00-.717 2.222l3.922 3.083a.128.128 0 01.045.133l-1.35 4.784A1.233 1.233 0 005.962 17.7l4.144-2.778a.122.122 0 01.139 0L14.39 17.7a1.222 1.222 0 001.416 0 1.222 1.222 0 00.461-1.333l-1.36-4.8a.122.122 0 01.044-.134l3.939-3.11z" fill="#99109B"/></symbol><symbol fill="none" xmlns="http://www.w3.org/2000/svg" viewBox="0 0 19 18" id="star-empty"><path d="M14.106 17.889c-.245 0-.485-.074-.689-.211L9.273 14.9a.122.122 0 00-.139 0L4.99 17.678a1.234 1.234 0 01-1.878-1.34l1.361-4.8a.128.128 0 00-.044-.133L.506 8.322A1.233 1.233 0 011.223 6.1l5-.189a.128.128 0 00.111-.083l1.722-4.684a1.233 1.233 0 012.317 0l1.722 4.684a.128.128 0 00.111.083l5 .189a1.233 1.233 0 01.717 2.222l-3.922 3.084a.123.123 0 00-.045.133l1.361 4.8a1.24 1.24 0 01-1.21 1.55zm-4.9-4.122c.246.007.484.088.684.233l4.144 2.778a.123.123 0 00.189-.14l-1.361-4.8a1.229 1.229 0 01.428-1.305l3.922-3.083a.122.122 0 000-.2.122.122 0 00-.072-.022l-5-.19a1.233 1.233 0 01-1.112-.81L9.306 1.544a.122.122 0 00-.233 0L7.367 6.222a1.233 1.233 0 01-1.11.811l-5 .19a.122.122 0 00-.073.221l3.928 3.09a1.233 1.233 0 01.428 1.305l-1.356 4.8a.117.117 0 00.045.133.111.111 0 00.144 0l4.144-2.778a1.24 1.24 0 01.684-.205l.005-.022z" fill="#99109B"/></symbol></svg>