<svg width="20" height="18" fill="none" xmlns="http://www.w3.org/2000/svg"><path d="M18.89 8.322a1.234 1.234 0 00-.717-2.222l-5-.189a.128.128 0 01-.111-.083L11.334 1.16a1.233 1.233 0 00-2.317 0L7.295 5.844a.128.128 0 01-.111.084l-5 .189a1.233 1.233 0 00-.717 2.222l3.922 3.083a.128.128 0 01.045.133l-1.35 4.784A1.233 1.233 0 005.962 17.7l4.144-2.778a.122.122 0 01.139 0L14.39 17.7a1.222 1.222 0 001.416 0 1.222 1.222 0 00.461-1.333l-1.36-4.8a.122.122 0 01.044-.134l3.939-3.11z" fill="#99109B"/></svg>