<svg width="19" height="18" fill="none" xmlns="http://www.w3.org/2000/svg"><path d="M14.106 17.889c-.245 0-.485-.074-.689-.211L9.273 14.9a.122.122 0 00-.139 0L4.99 17.678a1.234 1.234 0 01-1.878-1.34l1.361-4.8a.128.128 0 00-.044-.133L.506 8.322A1.233 1.233 0 011.223 6.1l5-.189a.128.128 0 00.111-.083l1.722-4.684a1.233 1.233 0 012.317 0l1.722 4.684a.128.128 0 00.111.083l5 .189a1.233 1.233 0 01.717 2.222l-3.922 3.084a.123.123 0 00-.045.133l1.361 4.8a1.24 1.24 0 01-1.21 1.55zm-4.9-4.122c.246.007.484.088.684.233l4.144 2.778a.123.123 0 00.189-.14l-1.361-4.8a1.229 1.229 0 01.428-1.305l3.922-3.083a.122.122 0 000-.2.122.122 0 00-.072-.022l-5-.19a1.233 1.233 0 01-1.112-.81L9.306 1.544a.122.122 0 00-.233 0L7.367 6.222a1.233 1.233 0 01-1.11.811l-5 .19a.122.122 0 00-.073.221l3.928 3.09a1.233 1.233 0 01.428 1.305l-1.356 4.8a.117.117 0 00.045.133.111.111 0 00.144 0l4.144-2.778a1.24 1.24 0 01.684-.205l.005-.022z" fill="#99109B"/></svg>