<svg width="22" height="24" fill="none" xmlns="http://www.w3.org/2000/svg"><path d="M16.96.57a32.33 32.33 0 00-12.084 0C3.116.95.899 3.076.516 4.747a23.863 23.863 0 000 9.874c.46 1.671 2.677 3.798 4.36 4.177.076 0 .153.076.153.152v4.785c0 .228.306.38.459.152l2.294-2.354s1.836-1.9 2.142-2.203c0 0 .077-.076.153-.076 2.294.076 4.665-.152 6.96-.532 1.76-.38 3.977-2.506 4.36-4.177a23.865 23.865 0 000-9.874C20.937 3.076 18.72.95 16.96.57zm.077 14.279c-.382.76-.841 1.367-1.606 1.747l-.688.228a9.615 9.615 0 01-.765-.228c-2.448-.988-4.742-2.355-6.578-4.33A18.266 18.266 0 014.876 8.47c-.306-.684-.612-1.291-.841-1.975-.23-.608.153-1.215.535-1.671.382-.456.841-.76 1.377-.987.382-.228.765-.076 1.07.228.612.759 1.224 1.519 1.683 2.354.306.532.23 1.14-.306 1.52-.153.075-.23.151-.382.303-.077.076-.23.152-.306.304-.153.228-.153.455-.077.683.612 1.747 1.76 3.114 3.519 3.874.306.152.535.228.918.228.535-.076.764-.684 1.147-.988.382-.303.841-.303 1.3-.076.383.228.765.532 1.224.836.382.304.765.532 1.147.835.23.152.306.532.153.912zm-3.212-5.697c-.077 0-.153 0 0 0-.306 0-.383-.152-.46-.38 0-.151 0-.38-.076-.531a1.443 1.443 0 00-.535-.836l-.459-.227c-.23-.076-.382-.076-.612-.076-.23-.076-.306-.228-.306-.456 0-.152.23-.304.383-.304 1.223.076 2.141.76 2.294 2.203v.304c0 .151-.076.303-.23.303zM13.06 5.81c-.383-.151-.765-.303-1.224-.38-.153 0-.382-.075-.535-.075-.23 0-.383-.152-.306-.38 0-.228.153-.38.382-.304.765.076 1.453.228 2.142.532 1.377.683 2.141 1.823 2.37 3.342v.987c-.076.304-.611.38-.688 0 0-.076-.076-.228-.076-.304 0-.683-.153-1.367-.459-1.974-.459-.684-.994-1.14-1.606-1.444zm4.13 4.558c-.23 0-.382-.228-.382-.456 0-.456-.077-.912-.153-1.367-.306-2.43-2.295-4.406-4.666-4.785-.382-.076-.765-.076-1.07-.152-.23 0-.536 0-.613-.304-.076-.228.153-.456.383-.456h.153c.153 0 3.136.076 0 0 3.212.076 5.89 2.203 6.425 5.393.076.532.152 1.063.152 1.67.154.229 0 .457-.229.457z" fill="#fff"/></svg>