<svg width="24" height="24" fill="none" xmlns="http://www.w3.org/2000/svg"><path d="M20.488 3.5A11.918 11.918 0 0012.042 0C5.436 0 .084 5.333.084 11.917c0 2.083.585 4.166 1.588 5.916L0 24l6.355-1.667a12.226 12.226 0 005.687 1.417C18.648 23.75 24 18.417 24 11.833 23.916 8.75 22.746 5.75 20.488 3.5zm-2.676 12.667c-.251.666-1.422 1.333-2.007 1.416a4.687 4.687 0 01-1.84-.083c-.418-.167-1.003-.333-1.672-.667-3.01-1.25-4.934-4.25-5.101-4.5-.168-.166-1.255-1.583-1.255-3.083 0-1.5.753-2.167 1.004-2.5.25-.333.585-.333.836-.333h.585c.168 0 .418-.084.67.5.25.583.836 2.083.92 2.166a.53.53 0 010 .5 1.745 1.745 0 01-.335.5c-.168.167-.335.417-.418.5-.168.167-.335.334-.168.584.168.333.753 1.25 1.673 2.083 1.17 1 2.09 1.333 2.425 1.5.334.167.502.083.669-.083.167-.167.752-.834.92-1.167.167-.333.418-.25.669-.167.25.084 1.756.834 2.007 1 .334.167.502.25.585.334.084.25.084.833-.167 1.5z" fill="#fff"/></svg>